<?xml version="1.0" standalone="no"?>
 <!DOCTYPE svg PUBLIC "-//W3C//DTD SVG 1.1//EN" 
 "http://www.w3.org/Graphics/SVG/1.1/DTD/svg11.dtd"> 
<svg
  xmlns:svg="http://www.w3.org/2000/svg"
  xmlns="http://www.w3.org/2000/svg"
  xmlns:xlink="http://www.w3.org/1999/xlink"
  version="1.1"
  width="297.0022mm" height="210.0072mm" viewBox="0.0000 0.0000 297.0022 210.0072">
<title>SVG Image created as ch32_encoder-F_Paste.svg date 2024/11/20 19:19:14 </title>
  <desc>Image generated by PCBNEW </desc>
<g style="fill:#000000; fill-opacity:1.0000;stroke:#000000; stroke-opacity:1.0000;
stroke-linecap:round; stroke-linejoin:round;"
 transform="translate(0 0) scale(1 1)">
<path style="fill:#000000; fill-opacity:1.0000; stroke:none;fill-rule:evenodd;"
d="M 126.7875,101.7250
126.8065,101.6293
126.8607,101.5482
126.9418,101.4940
127.0375,101.4750
128.1125,101.4750
128.2082,101.4940
128.2893,101.5482
128.3435,101.6293
128.3625,101.7250
128.3625,102.5750
128.3435,102.6707
128.2893,102.7518
128.2082,102.8060
128.1125,102.8250
127.0375,102.8250
126.9418,102.8060
126.8607,102.7518
126.8065,102.6707
126.7875,102.5750
Z" /> 
<path style="fill:#000000; fill-opacity:1.0000; stroke:none;fill-rule:evenodd;"
d="M 129.6625,101.7250
129.6815,101.6293
129.7357,101.5482
129.8168,101.4940
129.9125,101.4750
130.9875,101.4750
131.0832,101.4940
131.1643,101.5482
131.2185,101.6293
131.2375,101.7250
131.2375,102.5750
131.2185,102.6707
131.1643,102.7518
131.0832,102.8060
130.9875,102.8250
129.9125,102.8250
129.8168,102.8060
129.7357,102.7518
129.6815,102.6707
129.6625,102.5750
Z" /> 
<path style="fill:#000000; fill-opacity:1.0000; stroke:none;fill-rule:evenodd;"
d="M 125.8875,100.5000
125.9784,100.5181
126.0554,100.5696
126.1069,100.6466
126.1250,100.7375
126.1250,101.3375
126.1069,101.4284
126.0554,101.5054
125.9784,101.5569
125.8875,101.5750
125.4125,101.5750
125.3216,101.5569
125.2446,101.5054
125.1931,101.4284
125.1750,101.3375
125.1750,100.7375
125.1931,100.6466
125.2446,100.5696
125.3216,100.5181
125.4125,100.5000
Z" /> 
<path style="fill:#000000; fill-opacity:1.0000; stroke:none;fill-rule:evenodd;"
d="M 125.8875,102.2250
125.9784,102.2431
126.0554,102.2946
126.1069,102.3716
126.1250,102.4625
126.1250,103.0625
126.1069,103.1534
126.0554,103.2304
125.9784,103.2819
125.8875,103.3000
125.4125,103.3000
125.3216,103.2819
125.2446,103.2304
125.1931,103.1534
125.1750,103.0625
125.1750,102.4625
125.1931,102.3716
125.2446,102.2946
125.3216,102.2431
125.4125,102.2250
Z" /> 
<path style="fill:#000000; fill-opacity:1.0000; stroke:none;fill-rule:evenodd;"
d="M 127.7125,117.9625
127.7306,117.8716
127.7821,117.7946
127.8591,117.7431
127.9500,117.7250
128.4500,117.7250
128.5409,117.7431
128.6179,117.7946
128.6694,117.8716
128.6875,117.9625
128.6875,118.4375
128.6694,118.5284
128.6179,118.6054
128.5409,118.6569
128.4500,118.6750
127.9500,118.6750
127.8591,118.6569
127.7821,118.6054
127.7306,118.5284
127.7125,118.4375
Z" /> 
<path style="fill:#000000; fill-opacity:1.0000; stroke:none;fill-rule:evenodd;"
d="M 129.5375,117.9625
129.5556,117.8716
129.6071,117.7946
129.6841,117.7431
129.7750,117.7250
130.2750,117.7250
130.3659,117.7431
130.4429,117.7946
130.4944,117.8716
130.5125,117.9625
130.5125,118.4375
130.4944,118.5284
130.4429,118.6054
130.3659,118.6569
130.2750,118.6750
129.7750,118.6750
129.6841,118.6569
129.6071,118.6054
129.5556,118.5284
129.5375,118.4375
Z" /> 
<path style="fill:#000000; fill-opacity:1.0000; stroke:none;fill-rule:evenodd;"
d="M 129.6875,112.8875
129.6694,112.9784
129.6179,113.0554
129.5409,113.1069
129.4500,113.1250
128.8500,113.1250
128.7591,113.1069
128.6821,113.0554
128.6306,112.9784
128.6125,112.8875
128.6125,112.4125
128.6306,112.3216
128.6821,112.2446
128.7591,112.1931
128.8500,112.1750
129.4500,112.1750
129.5409,112.1931
129.6179,112.2446
129.6694,112.3216
129.6875,112.4125
Z" /> 
<path style="fill:#000000; fill-opacity:1.0000; stroke:none;fill-rule:evenodd;"
d="M 127.9625,112.8875
127.9444,112.9784
127.8929,113.0554
127.8159,113.1069
127.7250,113.1250
127.1250,113.1250
127.0341,113.1069
126.9571,113.0554
126.9056,112.9784
126.8875,112.8875
126.8875,112.4125
126.9056,112.3216
126.9571,112.2446
127.0341,112.1931
127.1250,112.1750
127.7250,112.1750
127.8159,112.1931
127.8929,112.2446
127.9444,112.3216
127.9625,112.4125
Z" /> 
<path style="fill:#000000; fill-opacity:1.0000; stroke:none;fill-rule:evenodd;"
d="M 105.1500,102.3625
105.1681,102.2716
105.2196,102.1946
105.2966,102.1431
105.3875,102.1250
105.8875,102.1250
105.9784,102.1431
106.0554,102.1946
106.1069,102.2716
106.1250,102.3625
106.1250,102.8375
106.1069,102.9284
106.0554,103.0054
105.9784,103.0569
105.8875,103.0750
105.3875,103.0750
105.2966,103.0569
105.2196,103.0054
105.1681,102.9284
105.1500,102.8375
Z" /> 
<path style="fill:#000000; fill-opacity:1.0000; stroke:none;fill-rule:evenodd;"
d="M 106.9750,102.3625
106.9931,102.2716
107.0446,102.1946
107.1216,102.1431
107.2125,102.1250
107.7125,102.1250
107.8034,102.1431
107.8804,102.1946
107.9319,102.2716
107.9500,102.3625
107.9500,102.8375
107.9319,102.9284
107.8804,103.0054
107.8034,103.0569
107.7125,103.0750
107.2125,103.0750
107.1216,103.0569
107.0446,103.0054
106.9931,102.9284
106.9750,102.8375
Z" /> 
<path style="fill:#000000; fill-opacity:1.0000; stroke:none;fill-rule:evenodd;"
d="M 117.5375,114.8000
117.6284,114.8181
117.7054,114.8696
117.7569,114.9466
117.7750,115.0375
117.7750,115.6375
117.7569,115.7284
117.7054,115.8054
117.6284,115.8569
117.5375,115.8750
117.0625,115.8750
116.9716,115.8569
116.8946,115.8054
116.8431,115.7284
116.8250,115.6375
116.8250,115.0375
116.8431,114.9466
116.8946,114.8696
116.9716,114.8181
117.0625,114.8000
Z" /> 
<path style="fill:#000000; fill-opacity:1.0000; stroke:none;fill-rule:evenodd;"
d="M 117.5375,116.5250
117.6284,116.5431
117.7054,116.5946
117.7569,116.6716
117.7750,116.7625
117.7750,117.3625
117.7569,117.4534
117.7054,117.5304
117.6284,117.5819
117.5375,117.6000
117.0625,117.6000
116.9716,117.5819
116.8946,117.5304
116.8431,117.4534
116.8250,117.3625
116.8250,116.7625
116.8431,116.6716
116.8946,116.5946
116.9716,116.5431
117.0625,116.5250
Z" /> 
<path style="fill:#000000; fill-opacity:1.0000; stroke:none;fill-rule:evenodd;"
d="M 124.4000,117.9625
124.4181,117.8716
124.4696,117.7946
124.5466,117.7431
124.6375,117.7250
125.2375,117.7250
125.3284,117.7431
125.4054,117.7946
125.4569,117.8716
125.4750,117.9625
125.4750,118.4375
125.4569,118.5284
125.4054,118.6054
125.3284,118.6569
125.2375,118.6750
124.6375,118.6750
124.5466,118.6569
124.4696,118.6054
124.4181,118.5284
124.4000,118.4375
Z" /> 
<path style="fill:#000000; fill-opacity:1.0000; stroke:none;fill-rule:evenodd;"
d="M 126.1250,117.9625
126.1431,117.8716
126.1946,117.7946
126.2716,117.7431
126.3625,117.7250
126.9625,117.7250
127.0534,117.7431
127.1304,117.7946
127.1819,117.8716
127.2000,117.9625
127.2000,118.4375
127.1819,118.5284
127.1304,118.6054
127.0534,118.6569
126.9625,118.6750
126.3625,118.6750
126.2716,118.6569
126.1946,118.6054
126.1431,118.5284
126.1250,118.4375
Z" /> 
<path style="fill:#000000; fill-opacity:1.0000; stroke:none;fill-rule:evenodd;"
d="M 101.5500,107.9450
101.5614,107.8876
101.5939,107.8389
101.6426,107.8064
101.7000,107.7950
103.1500,107.7950
103.2074,107.8064
103.2561,107.8389
103.2886,107.8876
103.3000,107.9450
103.3000,108.2450
103.2886,108.3024
103.2561,108.3511
103.2074,108.3836
103.1500,108.3950
101.7000,108.3950
101.6426,108.3836
101.5939,108.3511
101.5614,108.3024
101.5500,108.2450
Z" /> 
<path style="fill:#000000; fill-opacity:1.0000; stroke:none;fill-rule:evenodd;"
d="M 101.5500,109.2150
101.5614,109.1576
101.5939,109.1089
101.6426,109.0764
101.7000,109.0650
103.1500,109.0650
103.2074,109.0764
103.2561,109.1089
103.2886,109.1576
103.3000,109.2150
103.3000,109.5150
103.2886,109.5724
103.2561,109.6211
103.2074,109.6536
103.1500,109.6650
101.7000,109.6650
101.6426,109.6536
101.5939,109.6211
101.5614,109.5724
101.5500,109.5150
Z" /> 
<path style="fill:#000000; fill-opacity:1.0000; stroke:none;fill-rule:evenodd;"
d="M 101.5500,110.4850
101.5614,110.4276
101.5939,110.3789
101.6426,110.3464
101.7000,110.3350
103.1500,110.3350
103.2074,110.3464
103.2561,110.3789
103.2886,110.4276
103.3000,110.4850
103.3000,110.7850
103.2886,110.8424
103.2561,110.8911
103.2074,110.9236
103.1500,110.9350
101.7000,110.9350
101.6426,110.9236
101.5939,110.8911
101.5614,110.8424
101.5500,110.7850
Z" /> 
<path style="fill:#000000; fill-opacity:1.0000; stroke:none;fill-rule:evenodd;"
d="M 101.5500,111.7550
101.5614,111.6976
101.5939,111.6489
101.6426,111.6164
101.7000,111.6050
103.1500,111.6050
103.2074,111.6164
103.2561,111.6489
103.2886,111.6976
103.3000,111.7550
103.3000,112.0550
103.2886,112.1124
103.2561,112.1611
103.2074,112.1936
103.1500,112.2050
101.7000,112.2050
101.6426,112.1936
101.5939,112.1611
101.5614,112.1124
101.5500,112.0550
Z" /> 
<path style="fill:#000000; fill-opacity:1.0000; stroke:none;fill-rule:evenodd;"
d="M 106.7000,111.7550
106.7114,111.6976
106.7439,111.6489
106.7926,111.6164
106.8500,111.6050
108.3000,111.6050
108.3574,111.6164
108.4061,111.6489
108.4386,111.6976
108.4500,111.7550
108.4500,112.0550
108.4386,112.1124
108.4061,112.1611
108.3574,112.1936
108.3000,112.2050
106.8500,112.2050
106.7926,112.1936
106.7439,112.1611
106.7114,112.1124
106.7000,112.0550
Z" /> 
<path style="fill:#000000; fill-opacity:1.0000; stroke:none;fill-rule:evenodd;"
d="M 106.7000,110.4850
106.7114,110.4276
106.7439,110.3789
106.7926,110.3464
106.8500,110.3350
108.3000,110.3350
108.3574,110.3464
108.4061,110.3789
108.4386,110.4276
108.4500,110.4850
108.4500,110.7850
108.4386,110.8424
108.4061,110.8911
108.3574,110.9236
108.3000,110.9350
106.8500,110.9350
106.7926,110.9236
106.7439,110.8911
106.7114,110.8424
106.7000,110.7850
Z" /> 
<path style="fill:#000000; fill-opacity:1.0000; stroke:none;fill-rule:evenodd;"
d="M 106.7000,109.2150
106.7114,109.1576
106.7439,109.1089
106.7926,109.0764
106.8500,109.0650
108.3000,109.0650
108.3574,109.0764
108.4061,109.1089
108.4386,109.1576
108.4500,109.2150
108.4500,109.5150
108.4386,109.5724
108.4061,109.6211
108.3574,109.6536
108.3000,109.6650
106.8500,109.6650
106.7926,109.6536
106.7439,109.6211
106.7114,109.5724
106.7000,109.5150
Z" /> 
<path style="fill:#000000; fill-opacity:1.0000; stroke:none;fill-rule:evenodd;"
d="M 106.7000,107.9450
106.7114,107.8876
106.7439,107.8389
106.7926,107.8064
106.8500,107.7950
108.3000,107.7950
108.3574,107.8064
108.4061,107.8389
108.4386,107.8876
108.4500,107.9450
108.4500,108.2450
108.4386,108.3024
108.4061,108.3511
108.3574,108.3836
108.3000,108.3950
106.8500,108.3950
106.7926,108.3836
106.7439,108.3511
106.7114,108.3024
106.7000,108.2450
Z" /> 
<path style="fill:#000000; fill-opacity:1.0000; stroke:none;fill-rule:evenodd;"
d="M 113.5000,106.1125
113.5181,106.0216
113.5696,105.9446
113.6466,105.8931
113.7375,105.8750
114.2375,105.8750
114.3284,105.8931
114.4054,105.9446
114.4569,106.0216
114.4750,106.1125
114.4750,106.5875
114.4569,106.6784
114.4054,106.7554
114.3284,106.8069
114.2375,106.8250
113.7375,106.8250
113.6466,106.8069
113.5696,106.7554
113.5181,106.6784
113.5000,106.5875
Z" /> 
<path style="fill:#000000; fill-opacity:1.0000; stroke:none;fill-rule:evenodd;"
d="M 115.3250,106.1125
115.3431,106.0216
115.3946,105.9446
115.4716,105.8931
115.5625,105.8750
116.0625,105.8750
116.1534,105.8931
116.2304,105.9446
116.2819,106.0216
116.3000,106.1125
116.3000,106.5875
116.2819,106.6784
116.2304,106.7554
116.1534,106.8069
116.0625,106.8250
115.5625,106.8250
115.4716,106.8069
115.3946,106.7554
115.3431,106.6784
115.3250,106.5875
Z" /> 
<path style="fill:#000000; fill-opacity:1.0000; stroke:none;fill-rule:evenodd;"
d="M 107.4375,103.6500
107.5284,103.6681
107.6054,103.7196
107.6569,103.7966
107.6750,103.8875
107.6750,104.3875
107.6569,104.4784
107.6054,104.5554
107.5284,104.6069
107.4375,104.6250
106.9625,104.6250
106.8716,104.6069
106.7946,104.5554
106.7431,104.4784
106.7250,104.3875
106.7250,103.8875
106.7431,103.7966
106.7946,103.7196
106.8716,103.6681
106.9625,103.6500
Z" /> 
<path style="fill:#000000; fill-opacity:1.0000; stroke:none;fill-rule:evenodd;"
d="M 107.4375,105.4750
107.5284,105.4931
107.6054,105.5446
107.6569,105.6216
107.6750,105.7125
107.6750,106.2125
107.6569,106.3034
107.6054,106.3804
107.5284,106.4319
107.4375,106.4500
106.9625,106.4500
106.8716,106.4319
106.7946,106.3804
106.7431,106.3034
106.7250,106.2125
106.7250,105.7125
106.7431,105.6216
106.7946,105.5446
106.8716,105.4931
106.9625,105.4750
Z" /> 
<path style="fill:#000000; fill-opacity:1.0000; stroke:none;fill-rule:evenodd;"
d="M 130.2375,108.6000
130.3284,108.6181
130.4054,108.6696
130.4569,108.7466
130.4750,108.8375
130.4750,109.4125
130.4569,109.5034
130.4054,109.5804
130.3284,109.6319
130.2375,109.6500
129.7625,109.6500
129.6716,109.6319
129.5946,109.5804
129.5431,109.5034
129.5250,109.4125
129.5250,108.8375
129.5431,108.7466
129.5946,108.6696
129.6716,108.6181
129.7625,108.6000
Z" /> 
<path style="fill:#000000; fill-opacity:1.0000; stroke:none;fill-rule:evenodd;"
d="M 130.2375,110.3500
130.3284,110.3681
130.4054,110.4196
130.4569,110.4966
130.4750,110.5875
130.4750,111.1625
130.4569,111.2534
130.4054,111.3304
130.3284,111.3819
130.2375,111.4000
129.7625,111.4000
129.6716,111.3819
129.5946,111.3304
129.5431,111.2534
129.5250,111.1625
129.5250,110.5875
129.5431,110.4966
129.5946,110.4196
129.6716,110.3681
129.7625,110.3500
Z" /> 
<path style="fill:#000000; fill-opacity:1.0000; stroke:none;fill-rule:evenodd;"
d="M 124.6125,103.1000
124.6011,103.1574
124.5686,103.2061
124.5199,103.2386
124.4625,103.2500
123.4375,103.2500
123.3801,103.2386
123.3314,103.2061
123.2989,103.1574
123.2875,103.1000
123.2875,102.8000
123.2989,102.7426
123.3314,102.6939
123.3801,102.6614
123.4375,102.6500
124.4625,102.6500
124.5199,102.6614
124.5686,102.6939
124.6011,102.7426
124.6125,102.8000
Z" /> 
<path style="fill:#000000; fill-opacity:1.0000; stroke:none;fill-rule:evenodd;"
d="M 124.6125,101.2000
124.6011,101.2574
124.5686,101.3061
124.5199,101.3386
124.4625,101.3500
123.4375,101.3500
123.3801,101.3386
123.3314,101.3061
123.2989,101.2574
123.2875,101.2000
123.2875,100.9000
123.2989,100.8426
123.3314,100.7939
123.3801,100.7614
123.4375,100.7500
124.4625,100.7500
124.5199,100.7614
124.5686,100.7939
124.6011,100.8426
124.6125,100.9000
Z" /> 
<path style="fill:#000000; fill-opacity:1.0000; stroke:none;fill-rule:evenodd;"
d="M 122.3375,102.1500
122.3261,102.2074
122.2936,102.2561
122.2449,102.2886
122.1875,102.3000
121.1625,102.3000
121.1051,102.2886
121.0564,102.2561
121.0239,102.2074
121.0125,102.1500
121.0125,101.8500
121.0239,101.7926
121.0564,101.7439
121.1051,101.7114
121.1625,101.7000
122.1875,101.7000
122.2449,101.7114
122.2936,101.7439
122.3261,101.7926
122.3375,101.8500
Z" /> 
<path style="fill:#000000; fill-opacity:1.0000; stroke:none;fill-rule:evenodd;"
d="M 113.5125,102.7500
113.5239,102.6926
113.5564,102.6439
113.6051,102.6114
113.6625,102.6000
114.8375,102.6000
114.8949,102.6114
114.9436,102.6439
114.9761,102.6926
114.9875,102.7500
114.9875,103.0500
114.9761,103.1074
114.9436,103.1561
114.8949,103.1886
114.8375,103.2000
113.6625,103.2000
113.6051,103.1886
113.5564,103.1561
113.5239,103.1074
113.5125,103.0500
Z" /> 
<path style="fill:#000000; fill-opacity:1.0000; stroke:none;fill-rule:evenodd;"
d="M 113.5125,104.6500
113.5239,104.5926
113.5564,104.5439
113.6051,104.5114
113.6625,104.5000
114.8375,104.5000
114.8949,104.5114
114.9436,104.5439
114.9761,104.5926
114.9875,104.6500
114.9875,104.9500
114.9761,105.0074
114.9436,105.0561
114.8949,105.0886
114.8375,105.1000
113.6625,105.1000
113.6051,105.0886
113.5564,105.0561
113.5239,105.0074
113.5125,104.9500
Z" /> 
<path style="fill:#000000; fill-opacity:1.0000; stroke:none;fill-rule:evenodd;"
d="M 115.3875,103.7000
115.3989,103.6426
115.4314,103.5939
115.4801,103.5614
115.5375,103.5500
116.7125,103.5500
116.7699,103.5614
116.8186,103.5939
116.8511,103.6426
116.8625,103.7000
116.8625,104.0000
116.8511,104.0574
116.8186,104.1061
116.7699,104.1386
116.7125,104.1500
115.5375,104.1500
115.4801,104.1386
115.4314,104.1061
115.3989,104.0574
115.3875,104.0000
Z" /> 
<path style="fill:#000000; fill-opacity:1.0000; stroke:none;fill-rule:evenodd;"
d="M 105.8875,103.6500
105.9784,103.6681
106.0554,103.7196
106.1069,103.7966
106.1250,103.8875
106.1250,104.3875
106.1069,104.4784
106.0554,104.5554
105.9784,104.6069
105.8875,104.6250
105.4125,104.6250
105.3216,104.6069
105.2446,104.5554
105.1931,104.4784
105.1750,104.3875
105.1750,103.8875
105.1931,103.7966
105.2446,103.7196
105.3216,103.6681
105.4125,103.6500
Z" /> 
<path style="fill:#000000; fill-opacity:1.0000; stroke:none;fill-rule:evenodd;"
d="M 105.8875,105.4750
105.9784,105.4931
106.0554,105.5446
106.1069,105.6216
106.1250,105.7125
106.1250,106.2125
106.1069,106.3034
106.0554,106.3804
105.9784,106.4319
105.8875,106.4500
105.4125,106.4500
105.3216,106.4319
105.2446,106.3804
105.1931,106.3034
105.1750,106.2125
105.1750,105.7125
105.1931,105.6216
105.2446,105.5446
105.3216,105.4931
105.4125,105.4750
Z" /> 
<path style="fill:#000000; fill-opacity:1.0000; stroke:none;fill-rule:evenodd;"
d="M 128.4750,104.0500
128.5133,104.0576
128.5457,104.0793
128.5674,104.1117
128.5750,104.1500
128.5750,105.4250
128.5674,105.4633
128.5457,105.4957
128.5133,105.5174
128.4750,105.5250
128.2750,105.5250
128.2367,105.5174
128.2043,105.4957
128.1826,105.4633
128.1750,105.4250
128.1750,104.1500
128.1826,104.1117
128.2043,104.0793
128.2367,104.0576
128.2750,104.0500
Z" /> 
<path style="fill:#000000; fill-opacity:1.0000; stroke:none;fill-rule:evenodd;"
d="M 127.8250,104.0500
127.8633,104.0576
127.8957,104.0793
127.9174,104.1117
127.9250,104.1500
127.9250,105.4250
127.9174,105.4633
127.8957,105.4957
127.8633,105.5174
127.8250,105.5250
127.6250,105.5250
127.5867,105.5174
127.5543,105.4957
127.5326,105.4633
127.5250,105.4250
127.5250,104.1500
127.5326,104.1117
127.5543,104.0793
127.5867,104.0576
127.6250,104.0500
Z" /> 
<path style="fill:#000000; fill-opacity:1.0000; stroke:none;fill-rule:evenodd;"
d="M 127.1750,104.0500
127.2133,104.0576
127.2457,104.0793
127.2674,104.1117
127.2750,104.1500
127.2750,105.4250
127.2674,105.4633
127.2457,105.4957
127.2133,105.5174
127.1750,105.5250
126.9750,105.5250
126.9367,105.5174
126.9043,105.4957
126.8826,105.4633
126.8750,105.4250
126.8750,104.1500
126.8826,104.1117
126.9043,104.0793
126.9367,104.0576
126.9750,104.0500
Z" /> 
<path style="fill:#000000; fill-opacity:1.0000; stroke:none;fill-rule:evenodd;"
d="M 126.5250,104.0500
126.5633,104.0576
126.5957,104.0793
126.6174,104.1117
126.6250,104.1500
126.6250,105.4250
126.6174,105.4633
126.5957,105.4957
126.5633,105.5174
126.5250,105.5250
126.3250,105.5250
126.2867,105.5174
126.2543,105.4957
126.2326,105.4633
126.2250,105.4250
126.2250,104.1500
126.2326,104.1117
126.2543,104.0793
126.2867,104.0576
126.3250,104.0500
Z" /> 
<path style="fill:#000000; fill-opacity:1.0000; stroke:none;fill-rule:evenodd;"
d="M 125.8750,104.0500
125.9133,104.0576
125.9457,104.0793
125.9674,104.1117
125.9750,104.1500
125.9750,105.4250
125.9674,105.4633
125.9457,105.4957
125.9133,105.5174
125.8750,105.5250
125.6750,105.5250
125.6367,105.5174
125.6043,105.4957
125.5826,105.4633
125.5750,105.4250
125.5750,104.1500
125.5826,104.1117
125.6043,104.0793
125.6367,104.0576
125.6750,104.0500
Z" /> 
<path style="fill:#000000; fill-opacity:1.0000; stroke:none;fill-rule:evenodd;"
d="M 125.2250,104.0500
125.2633,104.0576
125.2957,104.0793
125.3174,104.1117
125.3250,104.1500
125.3250,105.4250
125.3174,105.4633
125.2957,105.4957
125.2633,105.5174
125.2250,105.5250
125.0250,105.5250
124.9867,105.5174
124.9543,105.4957
124.9326,105.4633
124.9250,105.4250
124.9250,104.1500
124.9326,104.1117
124.9543,104.0793
124.9867,104.0576
125.0250,104.0500
Z" /> 
<path style="fill:#000000; fill-opacity:1.0000; stroke:none;fill-rule:evenodd;"
d="M 124.5750,104.0500
124.6133,104.0576
124.6457,104.0793
124.6674,104.1117
124.6750,104.1500
124.6750,105.4250
124.6674,105.4633
124.6457,105.4957
124.6133,105.5174
124.5750,105.5250
124.3750,105.5250
124.3367,105.5174
124.3043,105.4957
124.2826,105.4633
124.2750,105.4250
124.2750,104.1500
124.2826,104.1117
124.3043,104.0793
124.3367,104.0576
124.3750,104.0500
Z" /> 
<path style="fill:#000000; fill-opacity:1.0000; stroke:none;fill-rule:evenodd;"
d="M 123.9250,104.0500
123.9633,104.0576
123.9957,104.0793
124.0174,104.1117
124.0250,104.1500
124.0250,105.4250
124.0174,105.4633
123.9957,105.4957
123.9633,105.5174
123.9250,105.5250
123.7250,105.5250
123.6867,105.5174
123.6543,105.4957
123.6326,105.4633
123.6250,105.4250
123.6250,104.1500
123.6326,104.1117
123.6543,104.0793
123.6867,104.0576
123.7250,104.0500
Z" /> 
<path style="fill:#000000; fill-opacity:1.0000; stroke:none;fill-rule:evenodd;"
d="M 123.2750,104.0500
123.3133,104.0576
123.3457,104.0793
123.3674,104.1117
123.3750,104.1500
123.3750,105.4250
123.3674,105.4633
123.3457,105.4957
123.3133,105.5174
123.2750,105.5250
123.0750,105.5250
123.0367,105.5174
123.0043,105.4957
122.9826,105.4633
122.9750,105.4250
122.9750,104.1500
122.9826,104.1117
123.0043,104.0793
123.0367,104.0576
123.0750,104.0500
Z" /> 
<path style="fill:#000000; fill-opacity:1.0000; stroke:none;fill-rule:evenodd;"
d="M 122.6250,104.0500
122.6633,104.0576
122.6957,104.0793
122.7174,104.1117
122.7250,104.1500
122.7250,105.4250
122.7174,105.4633
122.6957,105.4957
122.6633,105.5174
122.6250,105.5250
122.4250,105.5250
122.3867,105.5174
122.3543,105.4957
122.3326,105.4633
122.3250,105.4250
122.3250,104.1500
122.3326,104.1117
122.3543,104.0793
122.3867,104.0576
122.4250,104.0500
Z" /> 
<path style="fill:#000000; fill-opacity:1.0000; stroke:none;fill-rule:evenodd;"
d="M 122.6250,109.7750
122.6633,109.7826
122.6957,109.8043
122.7174,109.8367
122.7250,109.8750
122.7250,111.1500
122.7174,111.1883
122.6957,111.2207
122.6633,111.2424
122.6250,111.2500
122.4250,111.2500
122.3867,111.2424
122.3543,111.2207
122.3326,111.1883
122.3250,111.1500
122.3250,109.8750
122.3326,109.8367
122.3543,109.8043
122.3867,109.7826
122.4250,109.7750
Z" /> 
<path style="fill:#000000; fill-opacity:1.0000; stroke:none;fill-rule:evenodd;"
d="M 123.2750,109.7750
123.3133,109.7826
123.3457,109.8043
123.3674,109.8367
123.3750,109.8750
123.3750,111.1500
123.3674,111.1883
123.3457,111.2207
123.3133,111.2424
123.2750,111.2500
123.0750,111.2500
123.0367,111.2424
123.0043,111.2207
122.9826,111.1883
122.9750,111.1500
122.9750,109.8750
122.9826,109.8367
123.0043,109.8043
123.0367,109.7826
123.0750,109.7750
Z" /> 
<path style="fill:#000000; fill-opacity:1.0000; stroke:none;fill-rule:evenodd;"
d="M 123.9250,109.7750
123.9633,109.7826
123.9957,109.8043
124.0174,109.8367
124.0250,109.8750
124.0250,111.1500
124.0174,111.1883
123.9957,111.2207
123.9633,111.2424
123.9250,111.2500
123.7250,111.2500
123.6867,111.2424
123.6543,111.2207
123.6326,111.1883
123.6250,111.1500
123.6250,109.8750
123.6326,109.8367
123.6543,109.8043
123.6867,109.7826
123.7250,109.7750
Z" /> 
<path style="fill:#000000; fill-opacity:1.0000; stroke:none;fill-rule:evenodd;"
d="M 124.5750,109.7750
124.6133,109.7826
124.6457,109.8043
124.6674,109.8367
124.6750,109.8750
124.6750,111.1500
124.6674,111.1883
124.6457,111.2207
124.6133,111.2424
124.5750,111.2500
124.3750,111.2500
124.3367,111.2424
124.3043,111.2207
124.2826,111.1883
124.2750,111.1500
124.2750,109.8750
124.2826,109.8367
124.3043,109.8043
124.3367,109.7826
124.3750,109.7750
Z" /> 
<path style="fill:#000000; fill-opacity:1.0000; stroke:none;fill-rule:evenodd;"
d="M 125.2250,109.7750
125.2633,109.7826
125.2957,109.8043
125.3174,109.8367
125.3250,109.8750
125.3250,111.1500
125.3174,111.1883
125.2957,111.2207
125.2633,111.2424
125.2250,111.2500
125.0250,111.2500
124.9867,111.2424
124.9543,111.2207
124.9326,111.1883
124.9250,111.1500
124.9250,109.8750
124.9326,109.8367
124.9543,109.8043
124.9867,109.7826
125.0250,109.7750
Z" /> 
<path style="fill:#000000; fill-opacity:1.0000; stroke:none;fill-rule:evenodd;"
d="M 125.8750,109.7750
125.9133,109.7826
125.9457,109.8043
125.9674,109.8367
125.9750,109.8750
125.9750,111.1500
125.9674,111.1883
125.9457,111.2207
125.9133,111.2424
125.8750,111.2500
125.6750,111.2500
125.6367,111.2424
125.6043,111.2207
125.5826,111.1883
125.5750,111.1500
125.5750,109.8750
125.5826,109.8367
125.6043,109.8043
125.6367,109.7826
125.6750,109.7750
Z" /> 
<path style="fill:#000000; fill-opacity:1.0000; stroke:none;fill-rule:evenodd;"
d="M 126.5250,109.7750
126.5633,109.7826
126.5957,109.8043
126.6174,109.8367
126.6250,109.8750
126.6250,111.1500
126.6174,111.1883
126.5957,111.2207
126.5633,111.2424
126.5250,111.2500
126.3250,111.2500
126.2867,111.2424
126.2543,111.2207
126.2326,111.1883
126.2250,111.1500
126.2250,109.8750
126.2326,109.8367
126.2543,109.8043
126.2867,109.7826
126.3250,109.7750
Z" /> 
<path style="fill:#000000; fill-opacity:1.0000; stroke:none;fill-rule:evenodd;"
d="M 127.1750,109.7750
127.2133,109.7826
127.2457,109.8043
127.2674,109.8367
127.2750,109.8750
127.2750,111.1500
127.2674,111.1883
127.2457,111.2207
127.2133,111.2424
127.1750,111.2500
126.9750,111.2500
126.9367,111.2424
126.9043,111.2207
126.8826,111.1883
126.8750,111.1500
126.8750,109.8750
126.8826,109.8367
126.9043,109.8043
126.9367,109.7826
126.9750,109.7750
Z" /> 
<path style="fill:#000000; fill-opacity:1.0000; stroke:none;fill-rule:evenodd;"
d="M 127.8250,109.7750
127.8633,109.7826
127.8957,109.8043
127.9174,109.8367
127.9250,109.8750
127.9250,111.1500
127.9174,111.1883
127.8957,111.2207
127.8633,111.2424
127.8250,111.2500
127.6250,111.2500
127.5867,111.2424
127.5543,111.2207
127.5326,111.1883
127.5250,111.1500
127.5250,109.8750
127.5326,109.8367
127.5543,109.8043
127.5867,109.7826
127.6250,109.7750
Z" /> 
<path style="fill:#000000; fill-opacity:1.0000; stroke:none;fill-rule:evenodd;"
d="M 128.4750,109.7750
128.5133,109.7826
128.5457,109.8043
128.5674,109.8367
128.5750,109.8750
128.5750,111.1500
128.5674,111.1883
128.5457,111.2207
128.5133,111.2424
128.4750,111.2500
128.2750,111.2500
128.2367,111.2424
128.2043,111.2207
128.1826,111.1883
128.1750,111.1500
128.1750,109.8750
128.1826,109.8367
128.2043,109.8043
128.2367,109.7826
128.2750,109.7750
Z" /> 
<path style="fill:#000000; fill-opacity:1.0000; stroke:none;fill-rule:evenodd;"
d="M 101.7375,105.7625
101.7556,105.6716
101.8071,105.5946
101.8841,105.5431
101.9750,105.5250
102.5750,105.5250
102.6659,105.5431
102.7429,105.5946
102.7944,105.6716
102.8125,105.7625
102.8125,106.2375
102.7944,106.3284
102.7429,106.4054
102.6659,106.4569
102.5750,106.4750
101.9750,106.4750
101.8841,106.4569
101.8071,106.4054
101.7556,106.3284
101.7375,106.2375
Z" /> 
<path style="fill:#000000; fill-opacity:1.0000; stroke:none;fill-rule:evenodd;"
d="M 103.4625,105.7625
103.4806,105.6716
103.5321,105.5946
103.6091,105.5431
103.7000,105.5250
104.3000,105.5250
104.3909,105.5431
104.4679,105.5946
104.5194,105.6716
104.5375,105.7625
104.5375,106.2375
104.5194,106.3284
104.4679,106.4054
104.3909,106.4569
104.3000,106.4750
103.7000,106.4750
103.6091,106.4569
103.5321,106.4054
103.4806,106.3284
103.4625,106.2375
Z" /> 
</g> 
</svg>
