<?xml version="1.0" standalone="no"?>
 <!DOCTYPE svg PUBLIC "-//W3C//DTD SVG 1.1//EN" 
 "http://www.w3.org/Graphics/SVG/1.1/DTD/svg11.dtd"> 
<svg
  xmlns:svg="http://www.w3.org/2000/svg"
  xmlns="http://www.w3.org/2000/svg"
  xmlns:xlink="http://www.w3.org/1999/xlink"
  version="1.1"
  width="297.0022mm" height="210.0072mm" viewBox="0.0000 0.0000 297.0022 210.0072">
<title>SVG Image created as gd32_encoder-F_Paste.svg date 2024/11/20 18:30:31 </title>
  <desc>Image generated by PCBNEW </desc>
<g style="fill:#000000; fill-opacity:1.0000;stroke:#000000; stroke-opacity:1.0000;
stroke-linecap:round; stroke-linejoin:round;"
 transform="translate(0 0) scale(1 1)">
<path style="fill:#000000; fill-opacity:1.0000; stroke:none;fill-rule:evenodd;"
d="M 127.4000,117.7625
127.4181,117.6716
127.4696,117.5946
127.5466,117.5431
127.6375,117.5250
128.1375,117.5250
128.2284,117.5431
128.3054,117.5946
128.3569,117.6716
128.3750,117.7625
128.3750,118.2375
128.3569,118.3284
128.3054,118.4054
128.2284,118.4569
128.1375,118.4750
127.6375,118.4750
127.5466,118.4569
127.4696,118.4054
127.4181,118.3284
127.4000,118.2375
Z" /> 
<path style="fill:#000000; fill-opacity:1.0000; stroke:none;fill-rule:evenodd;"
d="M 129.2250,117.7625
129.2431,117.6716
129.2946,117.5946
129.3716,117.5431
129.4625,117.5250
129.9625,117.5250
130.0534,117.5431
130.1304,117.5946
130.1819,117.6716
130.2000,117.7625
130.2000,118.2375
130.1819,118.3284
130.1304,118.4054
130.0534,118.4569
129.9625,118.4750
129.4625,118.4750
129.3716,118.4569
129.2946,118.4054
129.2431,118.3284
129.2250,118.2375
Z" /> 
<path style="fill:#000000; fill-opacity:1.0000; stroke:none;fill-rule:evenodd;"
d="M 126.5275,118.2375
126.5094,118.3284
126.4579,118.4054
126.3809,118.4569
126.2900,118.4750
125.7900,118.4750
125.6991,118.4569
125.6221,118.4054
125.5706,118.3284
125.5525,118.2375
125.5525,117.7625
125.5706,117.6716
125.6221,117.5946
125.6991,117.5431
125.7900,117.5250
126.2900,117.5250
126.3809,117.5431
126.4579,117.5946
126.5094,117.6716
126.5275,117.7625
Z" /> 
<path style="fill:#000000; fill-opacity:1.0000; stroke:none;fill-rule:evenodd;"
d="M 124.7025,118.2375
124.6844,118.3284
124.6329,118.4054
124.5559,118.4569
124.4650,118.4750
123.9650,118.4750
123.8741,118.4569
123.7971,118.4054
123.7456,118.3284
123.7275,118.2375
123.7275,117.7625
123.7456,117.6716
123.7971,117.5946
123.8741,117.5431
123.9650,117.5250
124.4650,117.5250
124.5559,117.5431
124.6329,117.5946
124.6844,117.6716
124.7025,117.7625
Z" /> 
<path style="fill:#000000; fill-opacity:1.0000; stroke:none;fill-rule:evenodd;"
d="M 126.7875,101.7250
126.8065,101.6293
126.8607,101.5482
126.9418,101.4940
127.0375,101.4750
128.1125,101.4750
128.2082,101.4940
128.2893,101.5482
128.3435,101.6293
128.3625,101.7250
128.3625,102.5750
128.3435,102.6707
128.2893,102.7518
128.2082,102.8060
128.1125,102.8250
127.0375,102.8250
126.9418,102.8060
126.8607,102.7518
126.8065,102.6707
126.7875,102.5750
Z" /> 
<path style="fill:#000000; fill-opacity:1.0000; stroke:none;fill-rule:evenodd;"
d="M 129.6625,101.7250
129.6815,101.6293
129.7357,101.5482
129.8168,101.4940
129.9125,101.4750
130.9875,101.4750
131.0832,101.4940
131.1643,101.5482
131.2185,101.6293
131.2375,101.7250
131.2375,102.5750
131.2185,102.6707
131.1643,102.7518
131.0832,102.8060
130.9875,102.8250
129.9125,102.8250
129.8168,102.8060
129.7357,102.7518
129.6815,102.6707
129.6625,102.5750
Z" /> 
<path style="fill:#000000; fill-opacity:1.0000; stroke:none;fill-rule:evenodd;"
d="M 125.8875,100.5000
125.9784,100.5181
126.0554,100.5696
126.1069,100.6466
126.1250,100.7375
126.1250,101.3375
126.1069,101.4284
126.0554,101.5054
125.9784,101.5569
125.8875,101.5750
125.4125,101.5750
125.3216,101.5569
125.2446,101.5054
125.1931,101.4284
125.1750,101.3375
125.1750,100.7375
125.1931,100.6466
125.2446,100.5696
125.3216,100.5181
125.4125,100.5000
Z" /> 
<path style="fill:#000000; fill-opacity:1.0000; stroke:none;fill-rule:evenodd;"
d="M 125.8875,102.2250
125.9784,102.2431
126.0554,102.2946
126.1069,102.3716
126.1250,102.4625
126.1250,103.0625
126.1069,103.1534
126.0554,103.2304
125.9784,103.2819
125.8875,103.3000
125.4125,103.3000
125.3216,103.2819
125.2446,103.2304
125.1931,103.1534
125.1750,103.0625
125.1750,102.4625
125.1931,102.3716
125.2446,102.2946
125.3216,102.2431
125.4125,102.2250
Z" /> 
<path style="fill:#000000; fill-opacity:1.0000; stroke:none;fill-rule:evenodd;"
d="M 130.2375,104.6000
130.3284,104.6181
130.4054,104.6696
130.4569,104.7466
130.4750,104.8375
130.4750,105.3375
130.4569,105.4284
130.4054,105.5054
130.3284,105.5569
130.2375,105.5750
129.7625,105.5750
129.6716,105.5569
129.5946,105.5054
129.5431,105.4284
129.5250,105.3375
129.5250,104.8375
129.5431,104.7466
129.5946,104.6696
129.6716,104.6181
129.7625,104.6000
Z" /> 
<path style="fill:#000000; fill-opacity:1.0000; stroke:none;fill-rule:evenodd;"
d="M 130.2375,106.4250
130.3284,106.4431
130.4054,106.4946
130.4569,106.5716
130.4750,106.6625
130.4750,107.1625
130.4569,107.2534
130.4054,107.3304
130.3284,107.3819
130.2375,107.4000
129.7625,107.4000
129.6716,107.3819
129.5946,107.3304
129.5431,107.2534
129.5250,107.1625
129.5250,106.6625
129.5431,106.5716
129.5946,106.4946
129.6716,106.4431
129.7625,106.4250
Z" /> 
<path style="fill:#000000; fill-opacity:1.0000; stroke:none;fill-rule:evenodd;"
d="M 126.6500,112.7375
126.6319,112.8284
126.5804,112.9054
126.5034,112.9569
126.4125,112.9750
125.8125,112.9750
125.7216,112.9569
125.6446,112.9054
125.5931,112.8284
125.5750,112.7375
125.5750,112.2625
125.5931,112.1716
125.6446,112.0946
125.7216,112.0431
125.8125,112.0250
126.4125,112.0250
126.5034,112.0431
126.5804,112.0946
126.6319,112.1716
126.6500,112.2625
Z" /> 
<path style="fill:#000000; fill-opacity:1.0000; stroke:none;fill-rule:evenodd;"
d="M 124.9250,112.7375
124.9069,112.8284
124.8554,112.9054
124.7784,112.9569
124.6875,112.9750
124.0875,112.9750
123.9966,112.9569
123.9196,112.9054
123.8681,112.8284
123.8500,112.7375
123.8500,112.2625
123.8681,112.1716
123.9196,112.0946
123.9966,112.0431
124.0875,112.0250
124.6875,112.0250
124.7784,112.0431
124.8554,112.0946
124.9069,112.1716
124.9250,112.2625
Z" /> 
<path style="fill:#000000; fill-opacity:1.0000; stroke:none;fill-rule:evenodd;"
d="M 105.1500,102.3625
105.1681,102.2716
105.2196,102.1946
105.2966,102.1431
105.3875,102.1250
105.8875,102.1250
105.9784,102.1431
106.0554,102.1946
106.1069,102.2716
106.1250,102.3625
106.1250,102.8375
106.1069,102.9284
106.0554,103.0054
105.9784,103.0569
105.8875,103.0750
105.3875,103.0750
105.2966,103.0569
105.2196,103.0054
105.1681,102.9284
105.1500,102.8375
Z" /> 
<path style="fill:#000000; fill-opacity:1.0000; stroke:none;fill-rule:evenodd;"
d="M 106.9750,102.3625
106.9931,102.2716
107.0446,102.1946
107.1216,102.1431
107.2125,102.1250
107.7125,102.1250
107.8034,102.1431
107.8804,102.1946
107.9319,102.2716
107.9500,102.3625
107.9500,102.8375
107.9319,102.9284
107.8804,103.0054
107.8034,103.0569
107.7125,103.0750
107.2125,103.0750
107.1216,103.0569
107.0446,103.0054
106.9931,102.9284
106.9750,102.8375
Z" /> 
<path style="fill:#000000; fill-opacity:1.0000; stroke:none;fill-rule:evenodd;"
d="M 117.5375,114.8000
117.6284,114.8181
117.7054,114.8696
117.7569,114.9466
117.7750,115.0375
117.7750,115.6375
117.7569,115.7284
117.7054,115.8054
117.6284,115.8569
117.5375,115.8750
117.0625,115.8750
116.9716,115.8569
116.8946,115.8054
116.8431,115.7284
116.8250,115.6375
116.8250,115.0375
116.8431,114.9466
116.8946,114.8696
116.9716,114.8181
117.0625,114.8000
Z" /> 
<path style="fill:#000000; fill-opacity:1.0000; stroke:none;fill-rule:evenodd;"
d="M 117.5375,116.5250
117.6284,116.5431
117.7054,116.5946
117.7569,116.6716
117.7750,116.7625
117.7750,117.3625
117.7569,117.4534
117.7054,117.5304
117.6284,117.5819
117.5375,117.6000
117.0625,117.6000
116.9716,117.5819
116.8946,117.5304
116.8431,117.4534
116.8250,117.3625
116.8250,116.7625
116.8431,116.6716
116.8946,116.5946
116.9716,116.5431
117.0625,116.5250
Z" /> 
<path style="fill:#000000; fill-opacity:1.0000; stroke:none;fill-rule:evenodd;"
d="M 116.1000,118.1875
116.0819,118.2784
116.0304,118.3554
115.9534,118.4069
115.8625,118.4250
115.2625,118.4250
115.1716,118.4069
115.0946,118.3554
115.0431,118.2784
115.0250,118.1875
115.0250,117.7125
115.0431,117.6216
115.0946,117.5446
115.1716,117.4931
115.2625,117.4750
115.8625,117.4750
115.9534,117.4931
116.0304,117.5446
116.0819,117.6216
116.1000,117.7125
Z" /> 
<path style="fill:#000000; fill-opacity:1.0000; stroke:none;fill-rule:evenodd;"
d="M 114.3750,118.1875
114.3569,118.2784
114.3054,118.3554
114.2284,118.4069
114.1375,118.4250
113.5375,118.4250
113.4466,118.4069
113.3696,118.3554
113.3181,118.2784
113.3000,118.1875
113.3000,117.7125
113.3181,117.6216
113.3696,117.5446
113.4466,117.4931
113.5375,117.4750
114.1375,117.4750
114.2284,117.4931
114.3054,117.5446
114.3569,117.6216
114.3750,117.7125
Z" /> 
<path style="fill:#000000; fill-opacity:1.0000; stroke:none;fill-rule:evenodd;"
d="M 128.2750,104.0125
128.3133,104.0201
128.3457,104.0418
128.3674,104.0742
128.3750,104.1125
128.3750,105.3875
128.3674,105.4258
128.3457,105.4582
128.3133,105.4799
128.2750,105.4875
128.0750,105.4875
128.0367,105.4799
128.0043,105.4582
127.9826,105.4258
127.9750,105.3875
127.9750,104.1125
127.9826,104.0742
128.0043,104.0418
128.0367,104.0201
128.0750,104.0125
Z" /> 
<path style="fill:#000000; fill-opacity:1.0000; stroke:none;fill-rule:evenodd;"
d="M 127.6250,104.0125
127.6633,104.0201
127.6957,104.0418
127.7174,104.0742
127.7250,104.1125
127.7250,105.3875
127.7174,105.4258
127.6957,105.4582
127.6633,105.4799
127.6250,105.4875
127.4250,105.4875
127.3867,105.4799
127.3543,105.4582
127.3326,105.4258
127.3250,105.3875
127.3250,104.1125
127.3326,104.0742
127.3543,104.0418
127.3867,104.0201
127.4250,104.0125
Z" /> 
<path style="fill:#000000; fill-opacity:1.0000; stroke:none;fill-rule:evenodd;"
d="M 126.9750,104.0125
127.0133,104.0201
127.0457,104.0418
127.0674,104.0742
127.0750,104.1125
127.0750,105.3875
127.0674,105.4258
127.0457,105.4582
127.0133,105.4799
126.9750,105.4875
126.7750,105.4875
126.7367,105.4799
126.7043,105.4582
126.6826,105.4258
126.6750,105.3875
126.6750,104.1125
126.6826,104.0742
126.7043,104.0418
126.7367,104.0201
126.7750,104.0125
Z" /> 
<path style="fill:#000000; fill-opacity:1.0000; stroke:none;fill-rule:evenodd;"
d="M 126.3250,104.0125
126.3633,104.0201
126.3957,104.0418
126.4174,104.0742
126.4250,104.1125
126.4250,105.3875
126.4174,105.4258
126.3957,105.4582
126.3633,105.4799
126.3250,105.4875
126.1250,105.4875
126.0867,105.4799
126.0543,105.4582
126.0326,105.4258
126.0250,105.3875
126.0250,104.1125
126.0326,104.0742
126.0543,104.0418
126.0867,104.0201
126.1250,104.0125
Z" /> 
<path style="fill:#000000; fill-opacity:1.0000; stroke:none;fill-rule:evenodd;"
d="M 125.6750,104.0125
125.7133,104.0201
125.7457,104.0418
125.7674,104.0742
125.7750,104.1125
125.7750,105.3875
125.7674,105.4258
125.7457,105.4582
125.7133,105.4799
125.6750,105.4875
125.4750,105.4875
125.4367,105.4799
125.4043,105.4582
125.3826,105.4258
125.3750,105.3875
125.3750,104.1125
125.3826,104.0742
125.4043,104.0418
125.4367,104.0201
125.4750,104.0125
Z" /> 
<path style="fill:#000000; fill-opacity:1.0000; stroke:none;fill-rule:evenodd;"
d="M 125.0250,104.0125
125.0633,104.0201
125.0957,104.0418
125.1174,104.0742
125.1250,104.1125
125.1250,105.3875
125.1174,105.4258
125.0957,105.4582
125.0633,105.4799
125.0250,105.4875
124.8250,105.4875
124.7867,105.4799
124.7543,105.4582
124.7326,105.4258
124.7250,105.3875
124.7250,104.1125
124.7326,104.0742
124.7543,104.0418
124.7867,104.0201
124.8250,104.0125
Z" /> 
<path style="fill:#000000; fill-opacity:1.0000; stroke:none;fill-rule:evenodd;"
d="M 124.3750,104.0125
124.4133,104.0201
124.4457,104.0418
124.4674,104.0742
124.4750,104.1125
124.4750,105.3875
124.4674,105.4258
124.4457,105.4582
124.4133,105.4799
124.3750,105.4875
124.1750,105.4875
124.1367,105.4799
124.1043,105.4582
124.0826,105.4258
124.0750,105.3875
124.0750,104.1125
124.0826,104.0742
124.1043,104.0418
124.1367,104.0201
124.1750,104.0125
Z" /> 
<path style="fill:#000000; fill-opacity:1.0000; stroke:none;fill-rule:evenodd;"
d="M 123.7250,104.0125
123.7633,104.0201
123.7957,104.0418
123.8174,104.0742
123.8250,104.1125
123.8250,105.3875
123.8174,105.4258
123.7957,105.4582
123.7633,105.4799
123.7250,105.4875
123.5250,105.4875
123.4867,105.4799
123.4543,105.4582
123.4326,105.4258
123.4250,105.3875
123.4250,104.1125
123.4326,104.0742
123.4543,104.0418
123.4867,104.0201
123.5250,104.0125
Z" /> 
<path style="fill:#000000; fill-opacity:1.0000; stroke:none;fill-rule:evenodd;"
d="M 123.0750,104.0125
123.1133,104.0201
123.1457,104.0418
123.1674,104.0742
123.1750,104.1125
123.1750,105.3875
123.1674,105.4258
123.1457,105.4582
123.1133,105.4799
123.0750,105.4875
122.8750,105.4875
122.8367,105.4799
122.8043,105.4582
122.7826,105.4258
122.7750,105.3875
122.7750,104.1125
122.7826,104.0742
122.8043,104.0418
122.8367,104.0201
122.8750,104.0125
Z" /> 
<path style="fill:#000000; fill-opacity:1.0000; stroke:none;fill-rule:evenodd;"
d="M 122.4250,104.0125
122.4633,104.0201
122.4957,104.0418
122.5174,104.0742
122.5250,104.1125
122.5250,105.3875
122.5174,105.4258
122.4957,105.4582
122.4633,105.4799
122.4250,105.4875
122.2250,105.4875
122.1867,105.4799
122.1543,105.4582
122.1326,105.4258
122.1250,105.3875
122.1250,104.1125
122.1326,104.0742
122.1543,104.0418
122.1867,104.0201
122.2250,104.0125
Z" /> 
<path style="fill:#000000; fill-opacity:1.0000; stroke:none;fill-rule:evenodd;"
d="M 122.4250,109.7375
122.4633,109.7451
122.4957,109.7668
122.5174,109.7992
122.5250,109.8375
122.5250,111.1125
122.5174,111.1508
122.4957,111.1832
122.4633,111.2049
122.4250,111.2125
122.2250,111.2125
122.1867,111.2049
122.1543,111.1832
122.1326,111.1508
122.1250,111.1125
122.1250,109.8375
122.1326,109.7992
122.1543,109.7668
122.1867,109.7451
122.2250,109.7375
Z" /> 
<path style="fill:#000000; fill-opacity:1.0000; stroke:none;fill-rule:evenodd;"
d="M 123.0750,109.7375
123.1133,109.7451
123.1457,109.7668
123.1674,109.7992
123.1750,109.8375
123.1750,111.1125
123.1674,111.1508
123.1457,111.1832
123.1133,111.2049
123.0750,111.2125
122.8750,111.2125
122.8367,111.2049
122.8043,111.1832
122.7826,111.1508
122.7750,111.1125
122.7750,109.8375
122.7826,109.7992
122.8043,109.7668
122.8367,109.7451
122.8750,109.7375
Z" /> 
<path style="fill:#000000; fill-opacity:1.0000; stroke:none;fill-rule:evenodd;"
d="M 123.7250,109.7375
123.7633,109.7451
123.7957,109.7668
123.8174,109.7992
123.8250,109.8375
123.8250,111.1125
123.8174,111.1508
123.7957,111.1832
123.7633,111.2049
123.7250,111.2125
123.5250,111.2125
123.4867,111.2049
123.4543,111.1832
123.4326,111.1508
123.4250,111.1125
123.4250,109.8375
123.4326,109.7992
123.4543,109.7668
123.4867,109.7451
123.5250,109.7375
Z" /> 
<path style="fill:#000000; fill-opacity:1.0000; stroke:none;fill-rule:evenodd;"
d="M 124.3750,109.7375
124.4133,109.7451
124.4457,109.7668
124.4674,109.7992
124.4750,109.8375
124.4750,111.1125
124.4674,111.1508
124.4457,111.1832
124.4133,111.2049
124.3750,111.2125
124.1750,111.2125
124.1367,111.2049
124.1043,111.1832
124.0826,111.1508
124.0750,111.1125
124.0750,109.8375
124.0826,109.7992
124.1043,109.7668
124.1367,109.7451
124.1750,109.7375
Z" /> 
<path style="fill:#000000; fill-opacity:1.0000; stroke:none;fill-rule:evenodd;"
d="M 125.0250,109.7375
125.0633,109.7451
125.0957,109.7668
125.1174,109.7992
125.1250,109.8375
125.1250,111.1125
125.1174,111.1508
125.0957,111.1832
125.0633,111.2049
125.0250,111.2125
124.8250,111.2125
124.7867,111.2049
124.7543,111.1832
124.7326,111.1508
124.7250,111.1125
124.7250,109.8375
124.7326,109.7992
124.7543,109.7668
124.7867,109.7451
124.8250,109.7375
Z" /> 
<path style="fill:#000000; fill-opacity:1.0000; stroke:none;fill-rule:evenodd;"
d="M 125.6750,109.7375
125.7133,109.7451
125.7457,109.7668
125.7674,109.7992
125.7750,109.8375
125.7750,111.1125
125.7674,111.1508
125.7457,111.1832
125.7133,111.2049
125.6750,111.2125
125.4750,111.2125
125.4367,111.2049
125.4043,111.1832
125.3826,111.1508
125.3750,111.1125
125.3750,109.8375
125.3826,109.7992
125.4043,109.7668
125.4367,109.7451
125.4750,109.7375
Z" /> 
<path style="fill:#000000; fill-opacity:1.0000; stroke:none;fill-rule:evenodd;"
d="M 126.3250,109.7375
126.3633,109.7451
126.3957,109.7668
126.4174,109.7992
126.4250,109.8375
126.4250,111.1125
126.4174,111.1508
126.3957,111.1832
126.3633,111.2049
126.3250,111.2125
126.1250,111.2125
126.0867,111.2049
126.0543,111.1832
126.0326,111.1508
126.0250,111.1125
126.0250,109.8375
126.0326,109.7992
126.0543,109.7668
126.0867,109.7451
126.1250,109.7375
Z" /> 
<path style="fill:#000000; fill-opacity:1.0000; stroke:none;fill-rule:evenodd;"
d="M 126.9750,109.7375
127.0133,109.7451
127.0457,109.7668
127.0674,109.7992
127.0750,109.8375
127.0750,111.1125
127.0674,111.1508
127.0457,111.1832
127.0133,111.2049
126.9750,111.2125
126.7750,111.2125
126.7367,111.2049
126.7043,111.1832
126.6826,111.1508
126.6750,111.1125
126.6750,109.8375
126.6826,109.7992
126.7043,109.7668
126.7367,109.7451
126.7750,109.7375
Z" /> 
<path style="fill:#000000; fill-opacity:1.0000; stroke:none;fill-rule:evenodd;"
d="M 127.6250,109.7375
127.6633,109.7451
127.6957,109.7668
127.7174,109.7992
127.7250,109.8375
127.7250,111.1125
127.7174,111.1508
127.6957,111.1832
127.6633,111.2049
127.6250,111.2125
127.4250,111.2125
127.3867,111.2049
127.3543,111.1832
127.3326,111.1508
127.3250,111.1125
127.3250,109.8375
127.3326,109.7992
127.3543,109.7668
127.3867,109.7451
127.4250,109.7375
Z" /> 
<path style="fill:#000000; fill-opacity:1.0000; stroke:none;fill-rule:evenodd;"
d="M 128.2750,109.7375
128.3133,109.7451
128.3457,109.7668
128.3674,109.7992
128.3750,109.8375
128.3750,111.1125
128.3674,111.1508
128.3457,111.1832
128.3133,111.2049
128.2750,111.2125
128.0750,111.2125
128.0367,111.2049
128.0043,111.1832
127.9826,111.1508
127.9750,111.1125
127.9750,109.8375
127.9826,109.7992
128.0043,109.7668
128.0367,109.7451
128.0750,109.7375
Z" /> 
<path style="fill:#000000; fill-opacity:1.0000; stroke:none;fill-rule:evenodd;"
d="M 101.5500,107.9450
101.5614,107.8876
101.5939,107.8389
101.6426,107.8064
101.7000,107.7950
103.1500,107.7950
103.2074,107.8064
103.2561,107.8389
103.2886,107.8876
103.3000,107.9450
103.3000,108.2450
103.2886,108.3024
103.2561,108.3511
103.2074,108.3836
103.1500,108.3950
101.7000,108.3950
101.6426,108.3836
101.5939,108.3511
101.5614,108.3024
101.5500,108.2450
Z" /> 
<path style="fill:#000000; fill-opacity:1.0000; stroke:none;fill-rule:evenodd;"
d="M 101.5500,109.2150
101.5614,109.1576
101.5939,109.1089
101.6426,109.0764
101.7000,109.0650
103.1500,109.0650
103.2074,109.0764
103.2561,109.1089
103.2886,109.1576
103.3000,109.2150
103.3000,109.5150
103.2886,109.5724
103.2561,109.6211
103.2074,109.6536
103.1500,109.6650
101.7000,109.6650
101.6426,109.6536
101.5939,109.6211
101.5614,109.5724
101.5500,109.5150
Z" /> 
<path style="fill:#000000; fill-opacity:1.0000; stroke:none;fill-rule:evenodd;"
d="M 101.5500,110.4850
101.5614,110.4276
101.5939,110.3789
101.6426,110.3464
101.7000,110.3350
103.1500,110.3350
103.2074,110.3464
103.2561,110.3789
103.2886,110.4276
103.3000,110.4850
103.3000,110.7850
103.2886,110.8424
103.2561,110.8911
103.2074,110.9236
103.1500,110.9350
101.7000,110.9350
101.6426,110.9236
101.5939,110.8911
101.5614,110.8424
101.5500,110.7850
Z" /> 
<path style="fill:#000000; fill-opacity:1.0000; stroke:none;fill-rule:evenodd;"
d="M 101.5500,111.7550
101.5614,111.6976
101.5939,111.6489
101.6426,111.6164
101.7000,111.6050
103.1500,111.6050
103.2074,111.6164
103.2561,111.6489
103.2886,111.6976
103.3000,111.7550
103.3000,112.0550
103.2886,112.1124
103.2561,112.1611
103.2074,112.1936
103.1500,112.2050
101.7000,112.2050
101.6426,112.1936
101.5939,112.1611
101.5614,112.1124
101.5500,112.0550
Z" /> 
<path style="fill:#000000; fill-opacity:1.0000; stroke:none;fill-rule:evenodd;"
d="M 106.7000,111.7550
106.7114,111.6976
106.7439,111.6489
106.7926,111.6164
106.8500,111.6050
108.3000,111.6050
108.3574,111.6164
108.4061,111.6489
108.4386,111.6976
108.4500,111.7550
108.4500,112.0550
108.4386,112.1124
108.4061,112.1611
108.3574,112.1936
108.3000,112.2050
106.8500,112.2050
106.7926,112.1936
106.7439,112.1611
106.7114,112.1124
106.7000,112.0550
Z" /> 
<path style="fill:#000000; fill-opacity:1.0000; stroke:none;fill-rule:evenodd;"
d="M 106.7000,110.4850
106.7114,110.4276
106.7439,110.3789
106.7926,110.3464
106.8500,110.3350
108.3000,110.3350
108.3574,110.3464
108.4061,110.3789
108.4386,110.4276
108.4500,110.4850
108.4500,110.7850
108.4386,110.8424
108.4061,110.8911
108.3574,110.9236
108.3000,110.9350
106.8500,110.9350
106.7926,110.9236
106.7439,110.8911
106.7114,110.8424
106.7000,110.7850
Z" /> 
<path style="fill:#000000; fill-opacity:1.0000; stroke:none;fill-rule:evenodd;"
d="M 106.7000,109.2150
106.7114,109.1576
106.7439,109.1089
106.7926,109.0764
106.8500,109.0650
108.3000,109.0650
108.3574,109.0764
108.4061,109.1089
108.4386,109.1576
108.4500,109.2150
108.4500,109.5150
108.4386,109.5724
108.4061,109.6211
108.3574,109.6536
108.3000,109.6650
106.8500,109.6650
106.7926,109.6536
106.7439,109.6211
106.7114,109.5724
106.7000,109.5150
Z" /> 
<path style="fill:#000000; fill-opacity:1.0000; stroke:none;fill-rule:evenodd;"
d="M 106.7000,107.9450
106.7114,107.8876
106.7439,107.8389
106.7926,107.8064
106.8500,107.7950
108.3000,107.7950
108.3574,107.8064
108.4061,107.8389
108.4386,107.8876
108.4500,107.9450
108.4500,108.2450
108.4386,108.3024
108.4061,108.3511
108.3574,108.3836
108.3000,108.3950
106.8500,108.3950
106.7926,108.3836
106.7439,108.3511
106.7114,108.3024
106.7000,108.2450
Z" /> 
<path style="fill:#000000; fill-opacity:1.0000; stroke:none;fill-rule:evenodd;"
d="M 113.5000,106.1125
113.5181,106.0216
113.5696,105.9446
113.6466,105.8931
113.7375,105.8750
114.2375,105.8750
114.3284,105.8931
114.4054,105.9446
114.4569,106.0216
114.4750,106.1125
114.4750,106.5875
114.4569,106.6784
114.4054,106.7554
114.3284,106.8069
114.2375,106.8250
113.7375,106.8250
113.6466,106.8069
113.5696,106.7554
113.5181,106.6784
113.5000,106.5875
Z" /> 
<path style="fill:#000000; fill-opacity:1.0000; stroke:none;fill-rule:evenodd;"
d="M 115.3250,106.1125
115.3431,106.0216
115.3946,105.9446
115.4716,105.8931
115.5625,105.8750
116.0625,105.8750
116.1534,105.8931
116.2304,105.9446
116.2819,106.0216
116.3000,106.1125
116.3000,106.5875
116.2819,106.6784
116.2304,106.7554
116.1534,106.8069
116.0625,106.8250
115.5625,106.8250
115.4716,106.8069
115.3946,106.7554
115.3431,106.6784
115.3250,106.5875
Z" /> 
<path style="fill:#000000; fill-opacity:1.0000; stroke:none;fill-rule:evenodd;"
d="M 107.4375,103.6500
107.5284,103.6681
107.6054,103.7196
107.6569,103.7966
107.6750,103.8875
107.6750,104.3875
107.6569,104.4784
107.6054,104.5554
107.5284,104.6069
107.4375,104.6250
106.9625,104.6250
106.8716,104.6069
106.7946,104.5554
106.7431,104.4784
106.7250,104.3875
106.7250,103.8875
106.7431,103.7966
106.7946,103.7196
106.8716,103.6681
106.9625,103.6500
Z" /> 
<path style="fill:#000000; fill-opacity:1.0000; stroke:none;fill-rule:evenodd;"
d="M 107.4375,105.4750
107.5284,105.4931
107.6054,105.5446
107.6569,105.6216
107.6750,105.7125
107.6750,106.2125
107.6569,106.3034
107.6054,106.3804
107.5284,106.4319
107.4375,106.4500
106.9625,106.4500
106.8716,106.4319
106.7946,106.3804
106.7431,106.3034
106.7250,106.2125
106.7250,105.7125
106.7431,105.6216
106.7946,105.5446
106.8716,105.4931
106.9625,105.4750
Z" /> 
<path style="fill:#000000; fill-opacity:1.0000; stroke:none;fill-rule:evenodd;"
d="M 129.7625,111.4000
129.6716,111.3819
129.5946,111.3304
129.5431,111.2534
129.5250,111.1625
129.5250,110.5875
129.5431,110.4966
129.5946,110.4196
129.6716,110.3681
129.7625,110.3500
130.2375,110.3500
130.3284,110.3681
130.4054,110.4196
130.4569,110.4966
130.4750,110.5875
130.4750,111.1625
130.4569,111.2534
130.4054,111.3304
130.3284,111.3819
130.2375,111.4000
Z" /> 
<path style="fill:#000000; fill-opacity:1.0000; stroke:none;fill-rule:evenodd;"
d="M 129.7625,109.6500
129.6716,109.6319
129.5946,109.5804
129.5431,109.5034
129.5250,109.4125
129.5250,108.8375
129.5431,108.7466
129.5946,108.6696
129.6716,108.6181
129.7625,108.6000
130.2375,108.6000
130.3284,108.6181
130.4054,108.6696
130.4569,108.7466
130.4750,108.8375
130.4750,109.4125
130.4569,109.5034
130.4054,109.5804
130.3284,109.6319
130.2375,109.6500
Z" /> 
<path style="fill:#000000; fill-opacity:1.0000; stroke:none;fill-rule:evenodd;"
d="M 124.6125,103.1000
124.6011,103.1574
124.5686,103.2061
124.5199,103.2386
124.4625,103.2500
123.4375,103.2500
123.3801,103.2386
123.3314,103.2061
123.2989,103.1574
123.2875,103.1000
123.2875,102.8000
123.2989,102.7426
123.3314,102.6939
123.3801,102.6614
123.4375,102.6500
124.4625,102.6500
124.5199,102.6614
124.5686,102.6939
124.6011,102.7426
124.6125,102.8000
Z" /> 
<path style="fill:#000000; fill-opacity:1.0000; stroke:none;fill-rule:evenodd;"
d="M 124.6125,101.2000
124.6011,101.2574
124.5686,101.3061
124.5199,101.3386
124.4625,101.3500
123.4375,101.3500
123.3801,101.3386
123.3314,101.3061
123.2989,101.2574
123.2875,101.2000
123.2875,100.9000
123.2989,100.8426
123.3314,100.7939
123.3801,100.7614
123.4375,100.7500
124.4625,100.7500
124.5199,100.7614
124.5686,100.7939
124.6011,100.8426
124.6125,100.9000
Z" /> 
<path style="fill:#000000; fill-opacity:1.0000; stroke:none;fill-rule:evenodd;"
d="M 122.3375,102.1500
122.3261,102.2074
122.2936,102.2561
122.2449,102.2886
122.1875,102.3000
121.1625,102.3000
121.1051,102.2886
121.0564,102.2561
121.0239,102.2074
121.0125,102.1500
121.0125,101.8500
121.0239,101.7926
121.0564,101.7439
121.1051,101.7114
121.1625,101.7000
122.1875,101.7000
122.2449,101.7114
122.2936,101.7439
122.3261,101.7926
122.3375,101.8500
Z" /> 
<path style="fill:#000000; fill-opacity:1.0000; stroke:none;fill-rule:evenodd;"
d="M 113.5125,102.7500
113.5239,102.6926
113.5564,102.6439
113.6051,102.6114
113.6625,102.6000
114.8375,102.6000
114.8949,102.6114
114.9436,102.6439
114.9761,102.6926
114.9875,102.7500
114.9875,103.0500
114.9761,103.1074
114.9436,103.1561
114.8949,103.1886
114.8375,103.2000
113.6625,103.2000
113.6051,103.1886
113.5564,103.1561
113.5239,103.1074
113.5125,103.0500
Z" /> 
<path style="fill:#000000; fill-opacity:1.0000; stroke:none;fill-rule:evenodd;"
d="M 113.5125,104.6500
113.5239,104.5926
113.5564,104.5439
113.6051,104.5114
113.6625,104.5000
114.8375,104.5000
114.8949,104.5114
114.9436,104.5439
114.9761,104.5926
114.9875,104.6500
114.9875,104.9500
114.9761,105.0074
114.9436,105.0561
114.8949,105.0886
114.8375,105.1000
113.6625,105.1000
113.6051,105.0886
113.5564,105.0561
113.5239,105.0074
113.5125,104.9500
Z" /> 
<path style="fill:#000000; fill-opacity:1.0000; stroke:none;fill-rule:evenodd;"
d="M 115.3875,103.7000
115.3989,103.6426
115.4314,103.5939
115.4801,103.5614
115.5375,103.5500
116.7125,103.5500
116.7699,103.5614
116.8186,103.5939
116.8511,103.6426
116.8625,103.7000
116.8625,104.0000
116.8511,104.0574
116.8186,104.1061
116.7699,104.1386
116.7125,104.1500
115.5375,104.1500
115.4801,104.1386
115.4314,104.1061
115.3989,104.0574
115.3875,104.0000
Z" /> 
<path style="fill:#000000; fill-opacity:1.0000; stroke:none;fill-rule:evenodd;"
d="M 105.8875,103.6500
105.9784,103.6681
106.0554,103.7196
106.1069,103.7966
106.1250,103.8875
106.1250,104.3875
106.1069,104.4784
106.0554,104.5554
105.9784,104.6069
105.8875,104.6250
105.4125,104.6250
105.3216,104.6069
105.2446,104.5554
105.1931,104.4784
105.1750,104.3875
105.1750,103.8875
105.1931,103.7966
105.2446,103.7196
105.3216,103.6681
105.4125,103.6500
Z" /> 
<path style="fill:#000000; fill-opacity:1.0000; stroke:none;fill-rule:evenodd;"
d="M 105.8875,105.4750
105.9784,105.4931
106.0554,105.5446
106.1069,105.6216
106.1250,105.7125
106.1250,106.2125
106.1069,106.3034
106.0554,106.3804
105.9784,106.4319
105.8875,106.4500
105.4125,106.4500
105.3216,106.4319
105.2446,106.3804
105.1931,106.3034
105.1750,106.2125
105.1750,105.7125
105.1931,105.6216
105.2446,105.5446
105.3216,105.4931
105.4125,105.4750
Z" /> 
<path style="fill:#000000; fill-opacity:1.0000; stroke:none;fill-rule:evenodd;"
d="M 101.7375,105.7625
101.7556,105.6716
101.8071,105.5946
101.8841,105.5431
101.9750,105.5250
102.5750,105.5250
102.6659,105.5431
102.7429,105.5946
102.7944,105.6716
102.8125,105.7625
102.8125,106.2375
102.7944,106.3284
102.7429,106.4054
102.6659,106.4569
102.5750,106.4750
101.9750,106.4750
101.8841,106.4569
101.8071,106.4054
101.7556,106.3284
101.7375,106.2375
Z" /> 
<path style="fill:#000000; fill-opacity:1.0000; stroke:none;fill-rule:evenodd;"
d="M 103.4625,105.7625
103.4806,105.6716
103.5321,105.5946
103.6091,105.5431
103.7000,105.5250
104.3000,105.5250
104.3909,105.5431
104.4679,105.5946
104.5194,105.6716
104.5375,105.7625
104.5375,106.2375
104.5194,106.3284
104.4679,106.4054
104.3909,106.4569
104.3000,106.4750
103.7000,106.4750
103.6091,106.4569
103.5321,106.4054
103.4806,106.3284
103.4625,106.2375
Z" /> 
</g> 
</svg>
