<svg xmlns="http://www.w3.org/2000/svg" xmlns:xlink="http://www.w3.org/1999/xlink" width="10.16cm" height="10.16cm" viewBox="0 0 101.6 101.6">
<path fill="none" stroke="#0000FF" stroke-width="0.06614583333333333"
  d="M 62.275000000000006,58.569894414354096 L
  62.28874069812747,58.50088726187967
  62.3236671419659,58.4486671419659
  62.37588726187967,58.41374069812747
  62.444894414354096,58.400000000000006
  62.930105585645904,58.400000000000006
  62.99911273812033,58.41374069812747
  63.05133285803409,58.4486671419659
  63.086259301872516,58.50088726187967
  63.10000000000001,58.569894414354096
  63.10000000000001,59.0301055856459
  63.086259301872516,59.099112738120326
  63.05133285803409,59.151332858034095
  62.99911273812033,59.186259301872525
  62.930105585645904,59.19999999999999
  62.444894414354096,59.19999999999999
  62.37588726187967,59.186259301872525
  62.3236671419659,59.151332858034095
  62.28874069812747,59.099112738120326
  62.275000000000006,59.0301055856459
  Z" />
<path fill="none" stroke="#0000FF" stroke-width="0.06614583333333333"
  d="M 64.09999999999998,58.569894414354096 L
  64.11374069812747,58.50088726187967
  64.1486671419659,58.4486671419659
  64.20088726187966,58.41374069812747
  64.26989441435408,58.400000000000006
  64.75510558564592,58.400000000000006
  64.82411273812035,58.41374069812747
  64.8763328580341,58.4486671419659
  64.91125930187253,58.500887261879654
  64.925,58.56989441435408
  64.925,59.03010558564591
  64.91125930187253,59.09911273812034
  64.8763328580341,59.151332858034095
  64.82411273812035,59.186259301872525
  64.75510558564592,59.19999999999999
  64.26989441435408,59.19999999999999
  64.20088726187966,59.186259301872525
  64.1486671419659,59.151332858034095
  64.11374069812747,59.099112738120326
  64.09999999999998,59.0301055856459
  Z" />
<path fill="none" stroke="#0000FF" stroke-width="0.06614583333333333"
  d="M 61.2525,59.0301055856459 L
  61.23875930187252,59.099112738120326
  61.20383285803409,59.151332858034095
  61.15161273812032,59.186259301872525
  61.08260558564591,59.19999999999999
  60.5973944143541,59.19999999999999
  60.52838726187967,59.186259301872525
  60.4761671419659,59.151332858034095
  60.44124069812747,59.099112738120326
  60.427499999999995,59.0301055856459
  60.427499999999995,58.569894414354096
  60.44124069812747,58.50088726187967
  60.4761671419659,58.4486671419659
  60.52838726187967,58.41374069812747
  60.5973944143541,58.400000000000006
  61.08260558564591,58.400000000000006
  61.15161273812032,58.41374069812747
  61.20383285803409,58.4486671419659
  61.23875930187252,58.50088726187967
  61.2525,58.569894414354096
  Z" />
<path fill="none" stroke="#0000FF" stroke-width="0.06614583333333333"
  d="M 59.427499999999995,59.0301055856459 L
  59.41375930187252,59.099112738120326
  59.3788328580341,59.151332858034095
  59.32661273812032,59.186259301872525
  59.257605585645905,59.19999999999999
  58.772394414354096,59.19999999999999
  58.70338726187967,59.186259301872525
  58.6511671419659,59.151332858034095
  58.61624069812747,59.099112738120326
  58.602500000000006,59.0301055856459
  58.602500000000006,58.569894414354096
  58.61624069812747,58.50088726187967
  58.6511671419659,58.4486671419659
  58.70338726187967,58.41374069812747
  58.772394414354096,58.400000000000006
  59.257605585645905,58.400000000000006
  59.32661273812032,58.41374069812747
  59.3788328580341,58.4486671419659
  59.41375930187252,58.50088726187967
  59.427499999999995,58.569894414354096
  Z" />
<path fill="none" stroke="#0000FF" stroke-width="0.06614583333333333"
  d="M 61.662499999999994,42.532373186096066 L
  61.677155581149734,42.458555337883965
  61.71477100476389,42.40227100476389
  61.771055337883965,42.364655581149734
  61.844873186096066,42.349999999999994
  62.90512681390395,42.349999999999994
  62.978944662116035,42.364655581149734
  63.035228995236096,42.40227100476389
  63.072844418850266,42.45855533788398
  63.08750000000002,42.532373186096066
  63.08750000000002,43.367626813903925
  63.072844418850266,43.44144466211601
  63.035228995236096,43.4977289952361
  62.978944662116035,43.53534441885026
  62.90512681390395,43.55
  61.844873186096066,43.55
  61.771055337883965,43.53534441885026
  61.71477100476389,43.4977289952361
  61.677155581149734,43.44144466211603
  61.662499999999994,43.367626813903925
  Z" />
<path fill="none" stroke="#0000FF" stroke-width="0.06614583333333333"
  d="M 64.53749999999998,42.532373186096066 L
  64.55215558114973,42.45855533788398
  64.5897710047639,42.40227100476389
  64.64605533788396,42.364655581149734
  64.71987318609605,42.349999999999994
  65.78012681390395,42.349999999999994
  65.85394466211604,42.364655581149734
  65.9102289952361,42.40227100476389
  65.94784441885027,42.45855533788398
  65.96250000000002,42.532373186096066
  65.96250000000002,43.367626813903925
  65.94784441885027,43.44144466211601
  65.9102289952361,43.4977289952361
  65.85394466211604,43.53534441885026
  65.78012681390395,43.55
  64.71987318609605,43.55
  64.64605533788396,43.53534441885026
  64.5897710047639,43.4977289952361
  64.55215558114973,43.44144466211601
  64.53749999999998,43.367626813903925
  Z" />
<path fill="none" stroke="#0000FF" stroke-width="0.06614583333333333"
  d="M 60.680105585645904,41.375 L
  60.74911273812032,41.38874069812748
  60.8013328580341,41.42366714196589
  60.836259301872516,41.47588726187968
  60.849999999999994,41.54489441435409
  60.849999999999994,42.13010558564591
  60.836259301872516,42.19911273812032
  60.8013328580341,42.25133285803409
  60.74911273812032,42.28625930187252
  60.680105585645904,42.3
  60.21989441435409,42.3
  60.150887261879674,42.28625930187253
  60.098667141965905,42.25133285803409
  60.06374069812746,42.19911273812032
  60.05,42.13010558564591
  60.05,41.54489441435409
  60.063740698127475,41.47588726187968
  60.098667141965905,41.42366714196589
  60.150887261879674,41.38874069812748
  60.21989441435409,41.375
  Z" />
<path fill="none" stroke="#0000FF" stroke-width="0.06614583333333333"
  d="M 60.680105585645904,43.099999999999994 L
  60.74911273812032,43.11374069812747
  60.8013328580341,43.1486671419659
  60.836259301872516,43.20088726187967
  60.849999999999994,43.2698944143541
  60.849999999999994,43.8551055856459
  60.836259301872516,43.92411273812033
  60.8013328580341,43.9763328580341
  60.74911273812032,44.011259301872514
  60.680105585645904,44.02499999999999
  60.21989441435409,44.02499999999999
  60.150887261879674,44.011259301872514
  60.098667141965905,43.9763328580341
  60.063740698127475,43.92411273812033
  60.05,43.8551055856459
  60.05,43.2698944143541
  60.063740698127475,43.20088726187967
  60.098667141965905,43.1486671419659
  60.150887261879674,43.11374069812746
  60.21989441435409,43.099999999999994
  Z" />
<path fill="none" stroke="#0000FF" stroke-width="0.06614583333333333"
  d="M 65.0301055856459,45.474999999999994 L
  65.0991127381203,45.48874069812746
  65.15133285803408,45.5236671419659
  65.18625930187251,45.57588726187967
  65.2,45.6448944143541
  65.2,46.13010558564591
  65.18625930187251,46.19911273812032
  65.15133285803408,46.25133285803409
  65.0991127381203,46.28625930187253
  65.0301055856459,46.3
  64.5698944143541,46.3
  64.5008872618797,46.28625930187253
  64.44866714196591,46.25133285803409
  64.41374069812748,46.19911273812032
  64.39999999999999,46.13010558564591
  64.39999999999999,45.6448944143541
  64.41374069812748,45.57588726187967
  64.44866714196591,45.5236671419659
  64.5008872618797,45.48874069812746
  64.5698944143541,45.474999999999994
  Z" />
<path fill="none" stroke="#0000FF" stroke-width="0.06614583333333333"
  d="M 65.0301055856459,47.3 L
  65.0991127381203,47.31374069812746
  65.15133285803408,47.348667141965905
  65.18625930187251,47.400887261879674
  65.2,47.46989441435409
  65.2,47.955105585645896
  65.18625930187251,48.02411273812032
  65.15133285803408,48.07633285803409
  65.0991127381203,48.111259301872536
  65.0301055856459,48.125
  64.5698944143541,48.125
  64.5008872618797,48.111259301872536
  64.44866714196591,48.07633285803409
  64.41374069812748,48.02411273812032
  64.39999999999999,47.955105585645896
  64.39999999999999,47.46989441435409
  64.41374069812748,47.400887261879674
  64.44866714196591,47.348667141965905
  64.5008872618797,47.31374069812746
  64.5698944143541,47.3
  Z" />
<path fill="none" stroke="#0000FF" stroke-width="0.06614583333333333"
  d="M 61.375,53.5301055856459 L
  61.36125930187252,53.599112738120326
  61.32633285803409,53.651332858034095
  61.27411273812032,53.686259301872525
  61.205105585645896,53.69999999999999
  60.61989441435409,53.69999999999999
  60.550887261879666,53.686259301872525
  60.498667141965896,53.651332858034095
  60.46374069812748,53.599112738120326
  60.45,53.5301055856459
  60.45,53.069894414354096
  60.46374069812748,53.00088726187967
  60.498667141965896,52.9486671419659
  60.550887261879666,52.91374069812747
  60.61989441435409,52.900000000000006
  61.205105585645896,52.900000000000006
  61.27411273812032,52.91374069812747
  61.32633285803409,52.9486671419659
  61.36125930187252,53.00088726187967
  61.375,53.069894414354096
  Z" />
<path fill="none" stroke="#0000FF" stroke-width="0.06614583333333333"
  d="M 59.64999999999999,53.5301055856459 L
  59.636259301872514,53.599112738120326
  59.6013328580341,53.651332858034095
  59.54911273812033,53.686259301872525
  59.4801055856459,53.69999999999999
  58.8948944143541,53.69999999999999
  58.82588726187967,53.686259301872525
  58.7736671419659,53.651332858034095
  58.73874069812747,53.599112738120326
  58.724999999999994,53.5301055856459
  58.724999999999994,53.069894414354096
  58.73874069812747,53.00088726187967
  58.7736671419659,52.9486671419659
  58.82588726187967,52.91374069812747
  58.8948944143541,52.900000000000006
  59.4801055856459,52.900000000000006
  59.54911273812033,52.91374069812747
  59.6013328580341,52.9486671419659
  59.636259301872514,53.00088726187967
  59.64999999999999,53.069894414354096
  Z" />
<path fill="none" stroke="#0000FF" stroke-width="0.06614583333333333"
  d="M 40.025000000000006,43.16989441435409 L
  40.03874069812747,43.10088726187968
  40.0736671419659,43.04866714196589
  40.12588726187967,43.01374069812748
  40.194894414354096,43.0
  40.680105585645904,43.0
  40.74911273812032,43.01374069812748
  40.8013328580341,43.04866714196589
  40.836259301872516,43.10088726187968
  40.849999999999994,43.16989441435409
  40.849999999999994,43.63010558564591
  40.836259301872516,43.69911273812032
  40.8013328580341,43.75133285803409
  40.74911273812032,43.78625930187252
  40.680105585645904,43.8
  40.194894414354096,43.8
  40.12588726187967,43.78625930187252
  40.0736671419659,43.75133285803409
  40.03874069812747,43.69911273812032
  40.025000000000006,43.63010558564591
  Z" />
<path fill="none" stroke="#0000FF" stroke-width="0.06614583333333333"
  d="M 41.849999999999994,43.16989441435409 L
  41.86374069812747,43.10088726187968
  41.8986671419659,43.04866714196589
  41.95088726187967,43.01374069812748
  42.0198944143541,43.0
  42.50510558564591,43.0
  42.57411273812032,43.01374069812748
  42.62633285803409,43.04866714196589
  42.66125930187252,43.10088726187968
  42.675,43.16989441435409
  42.675,43.63010558564591
  42.66125930187253,43.69911273812032
  42.62633285803409,43.75133285803409
  42.57411273812032,43.78625930187253
  42.50510558564591,43.8
  42.0198944143541,43.8
  41.95088726187967,43.78625930187252
  41.8986671419659,43.75133285803409
  41.86374069812746,43.69911273812032
  41.849999999999994,43.63010558564591
  Z" />
<path fill="none" stroke="#0000FF" stroke-width="0.06614583333333333"
  d="M 52.330105585645896,55.675 L
  52.39911273812032,55.688740698127475
  52.45133285803409,55.723667141965905
  52.486259301872536,55.775887261879674
  52.5,55.84489441435409
  52.5,56.430105585645904
  52.48625930187252,56.49911273812032
  52.45133285803409,56.5513328580341
  52.39911273812032,56.586259301872516
  52.330105585645896,56.599999999999994
  51.86989441435409,56.599999999999994
  51.800887261879666,56.586259301872516
  51.748667141965896,56.5513328580341
  51.71374069812748,56.49911273812032
  51.7,56.430105585645904
  51.7,55.84489441435409
  51.71374069812748,55.775887261879674
  51.748667141965896,55.723667141965905
  51.800887261879666,55.688740698127475
  51.86989441435409,55.675
  Z" />
<path fill="none" stroke="#0000FF" stroke-width="0.06614583333333333"
  d="M 52.330105585645896,57.400000000000006 L
  52.39911273812032,57.41374069812747
  52.45133285803409,57.4486671419659
  52.48625930187252,57.50088726187967
  52.5,57.569894414354096
  52.5,58.1551055856459
  52.48625930187252,58.224112738120326
  52.45133285803409,58.276332858034095
  52.39911273812032,58.311259301872525
  52.330105585645896,58.32499999999999
  51.86989441435409,58.32499999999999
  51.800887261879666,58.311259301872525
  51.748667141965896,58.276332858034095
  51.71374069812748,58.224112738120326
  51.7,58.1551055856459
  51.7,57.569894414354096
  51.71374069812748,57.50088726187967
  51.748667141965896,57.4486671419659
  51.800887261879666,57.41374069812747
  51.86989441435409,57.400000000000006
  Z" />
<path fill="none" stroke="#0000FF" stroke-width="0.06614583333333333"
  d="M 50.82499999999999,58.9801055856459 L
  50.811259301872525,59.04911273812033
  50.776332858034095,59.1013328580341
  50.724112738120326,59.136259301872514
  50.6551055856459,59.14999999999999
  50.069894414354096,59.14999999999999
  50.00088726187967,59.136259301872514
  49.9486671419659,59.1013328580341
  49.91374069812747,59.04911273812033
  49.900000000000006,58.9801055856459
  49.900000000000006,58.5198944143541
  49.91374069812747,58.45088726187967
  49.9486671419659,58.3986671419659
  50.00088726187967,58.36374069812747
  50.069894414354096,58.349999999999994
  50.6551055856459,58.349999999999994
  50.724112738120326,58.36374069812747
  50.776332858034095,58.3986671419659
  50.811259301872525,58.45088726187967
  50.82499999999999,58.5198944143541
  Z" />
<path fill="none" stroke="#0000FF" stroke-width="0.06614583333333333"
  d="M 49.099999999999994,58.9801055856459 L
  49.086259301872516,59.04911273812033
  49.0513328580341,59.1013328580341
  48.99911273812032,59.136259301872514
  48.930105585645904,59.14999999999999
  48.34489441435409,59.14999999999999
  48.275887261879674,59.136259301872514
  48.223667141965905,59.1013328580341
  48.188740698127475,59.04911273812033
  48.175,58.9801055856459
  48.175,58.5198944143541
  48.188740698127475,58.45088726187967
  48.223667141965905,58.3986671419659
  48.275887261879674,58.36374069812746
  48.34489441435409,58.349999999999994
  48.930105585645904,58.349999999999994
  48.99911273812032,58.36374069812747
  49.0513328580341,58.3986671419659
  49.086259301872516,58.45088726187967
  49.099999999999994,58.5198944143541
  Z" />
<path fill="none" stroke="#0000FF" stroke-width="0.06614583333333333"
  d="M 63.067630590477805,44.8875 L
  63.08782473267537,44.893305251272565
  63.096749819861046,44.90349021224304
  63.10000000000001,44.91986940952219
  63.10000000000001,46.1801305904778
  63.09419474872742,46.20032473267537
  63.084009787756955,46.20924981986106
  63.067630590477805,46.21249999999999
  62.882369409522184,46.21249999999999
  62.862175267324616,46.20669474872743
  62.85325018013894,46.19650978775695
  62.84999999999998,46.18013059047779
  62.84999999999998,44.91986940952221
  62.85580525127257,44.89967526732461
  62.865990212243034,44.89075018013894
  62.882369409522184,44.8875
  Z" />
<path fill="none" stroke="#0000FF" stroke-width="0.06614583333333333"
  d="M 62.4176305904778,44.8875 L
  62.43782473267537,44.893305251272565
  62.446749819861054,44.90349021224304
  62.44999999999999,44.91986940952219
  62.44999999999999,46.1801305904778
  62.44419474872741,46.200324732675384
  62.43400978775696,46.20924981986106
  62.4176305904778,46.21249999999999
  62.23236940952219,46.21249999999999
  62.212175267324625,46.20669474872743
  62.20325018013894,46.19650978775695
  62.2,46.1801305904778
  62.2,44.91986940952219
  62.205805251272565,44.899675267324625
  62.21599021224304,44.89075018013894
  62.23236940952219,44.8875
  Z" />
<path fill="none" stroke="#0000FF" stroke-width="0.06614583333333333"
  d="M 61.76763059047779,44.8875 L
  61.787824732675375,44.893305251272565
  61.79674981986106,44.90349021224304
  61.8,44.91986940952219
  61.8,46.1801305904778
  61.794194748727435,46.20032473267537
  61.78400978775696,46.20924981986106
  61.76763059047779,46.21249999999999
  61.5823694095222,46.21249999999999
  61.56217526732462,46.20669474872743
  61.55325018013893,46.19650978775695
  61.55,46.1801305904778
  61.55,44.91986940952219
  61.55580525127256,44.899675267324625
  61.56599021224304,44.89075018013894
  61.5823694095222,44.8875
  Z" />
<path fill="none" stroke="#0000FF" stroke-width="0.06614583333333333"
  d="M 61.1176305904778,44.8875 L
  61.13782473267537,44.893305251272565
  61.14674981986106,44.90349021224304
  61.14999999999999,44.91986940952219
  61.14999999999999,46.1801305904778
  61.14419474872743,46.20032473267537
  61.13400978775695,46.20924981986106
  61.1176305904778,46.21249999999999
  60.932369409522195,46.21249999999999
  60.91217526732463,46.20669474872743
  60.90325018013894,46.19650978775695
  60.900000000000006,46.1801305904778
  60.900000000000006,44.91986940952219
  60.90580525127258,44.89967526732461
  60.91599021224303,44.89075018013894
  60.932369409522195,44.8875
  Z" />
<path fill="none" stroke="#0000FF" stroke-width="0.06614583333333333"
  d="M 60.467630590477796,44.8875 L
  60.48782473267538,44.893305251272565
  60.49674981986105,44.90349021224304
  60.5,44.91986940952221
  60.5,46.18013059047779
  60.49419474872742,46.200324732675384
  60.48400978775696,46.20924981986106
  60.467630590477796,46.21249999999999
  60.28236940952219,46.21249999999999
  60.26217526732462,46.20669474872743
  60.253250180138934,46.19650978775695
  60.25,46.1801305904778
  60.25,44.91986940952219
  60.25580525127258,44.899675267324625
  60.26599021224304,44.89075018013894
  60.28236940952219,44.8875
  Z" />
<path fill="none" stroke="#0000FF" stroke-width="0.06614583333333333"
  d="M 59.817630590477805,44.8875 L
  59.83782473267537,44.893305251272565
  59.84674981986106,44.90349021224304
  59.849999999999994,44.91986940952219
  59.849999999999994,46.1801305904778
  59.84419474872742,46.20032473267537
  59.834009787756955,46.20924981986106
  59.817630590477805,46.21249999999999
  59.6323694095222,46.21249999999999
  59.612175267324616,46.20669474872743
  59.60325018013894,46.19650978775695
  59.599999999999994,46.18013059047779
  59.599999999999994,44.91986940952221
  59.60580525127257,44.89967526732461
  59.615990212243034,44.89075018013894
  59.6323694095222,44.8875
  Z" />
<path fill="none" stroke="#0000FF" stroke-width="0.06614583333333333"
  d="M 59.1676305904778,44.8875 L
  59.18782473267537,44.893305251272565
  59.196749819861054,44.90349021224304
  59.19999999999999,44.91986940952219
  59.19999999999999,46.1801305904778
  59.19419474872741,46.200324732675384
  59.18400978775696,46.20924981986106
  59.1676305904778,46.21249999999999
  58.98236940952219,46.21249999999999
  58.962175267324625,46.20669474872743
  58.95325018013894,46.19650978775695
  58.95,46.1801305904778
  58.95,44.91986940952219
  58.955805251272565,44.899675267324625
  58.96599021224304,44.89075018013894
  58.98236940952219,44.8875
  Z" />
<path fill="none" stroke="#0000FF" stroke-width="0.06614583333333333"
  d="M 58.51763059047779,44.8875 L
  58.537824732675375,44.893305251272565
  58.54674981986106,44.90349021224304
  58.55,44.91986940952219
  58.55,46.1801305904778
  58.544194748727435,46.20032473267537
  58.53400978775696,46.20924981986106
  58.51763059047779,46.21249999999999
  58.3323694095222,46.21249999999999
  58.31217526732462,46.20669474872743
  58.30325018013893,46.19650978775695
  58.3,46.1801305904778
  58.3,44.91986940952219
  58.30580525127256,44.899675267324625
  58.31599021224304,44.89075018013894
  58.3323694095222,44.8875
  Z" />
<path fill="none" stroke="#0000FF" stroke-width="0.06614583333333333"
  d="M 57.8676305904778,44.8875 L
  57.88782473267537,44.893305251272565
  57.89674981986106,44.90349021224304
  57.89999999999999,44.91986940952219
  57.89999999999999,46.1801305904778
  57.89419474872743,46.20032473267537
  57.88400978775695,46.20924981986106
  57.8676305904778,46.21249999999999
  57.682369409522195,46.21249999999999
  57.66217526732463,46.20669474872743
  57.65325018013894,46.19650978775695
  57.650000000000006,46.1801305904778
  57.650000000000006,44.91986940952219
  57.65580525127258,44.89967526732461
  57.66599021224303,44.89075018013894
  57.682369409522195,44.8875
  Z" />
<path fill="none" stroke="#0000FF" stroke-width="0.06614583333333333"
  d="M 57.217630590477796,44.8875 L
  57.23782473267538,44.893305251272565
  57.24674981986105,44.90349021224304
  57.25,44.91986940952221
  57.25,46.18013059047779
  57.24419474872742,46.200324732675384
  57.23400978775696,46.20924981986106
  57.217630590477796,46.21249999999999
  57.03236940952219,46.21249999999999
  57.01217526732462,46.20669474872743
  57.003250180138934,46.19650978775695
  57.0,46.1801305904778
  57.0,44.91986940952219
  57.00580525127258,44.899675267324625
  57.01599021224304,44.89075018013894
  57.03236940952219,44.8875
  Z" />
<path fill="none" stroke="#0000FF" stroke-width="0.06614583333333333"
  d="M 57.217630590477796,50.6125 L
  57.237824732675364,50.61830525127256
  57.24674981986105,50.62849021224305
  57.25,50.644869409522215
  57.25,51.90513059047778
  57.24419474872742,51.925324732675364
  57.234009787756946,51.93424981986105
  57.21763059047778,51.9375
  57.032369409522204,51.9375
  57.01217526732462,51.93169474872742
  57.003250180138934,51.921509787756946
  57.0,51.905130590477796
  57.0,50.6448694095222
  57.00580525127258,50.62467526732463
  57.015990212243054,50.61575018013893
  57.03236940952219,50.6125
  Z" />
<path fill="none" stroke="#0000FF" stroke-width="0.06614583333333333"
  d="M 57.8676305904778,50.6125 L
  57.88782473267537,50.61830525127256
  57.89674981986106,50.62849021224304
  57.89999999999999,50.6448694095222
  57.89999999999999,51.905130590477796
  57.89419474872743,51.92532473267538
  57.88400978775695,51.93424981986105
  57.86763059047779,51.9375
  57.68236940952221,51.9375
  57.66217526732463,51.93169474872742
  57.65325018013894,51.92150978775696
  57.650000000000006,51.905130590477796
  57.650000000000006,50.6448694095222
  57.65580525127258,50.62467526732462
  57.665990212243045,50.61575018013893
  57.682369409522195,50.6125
  Z" />
<path fill="none" stroke="#0000FF" stroke-width="0.06614583333333333"
  d="M 58.51763059047779,50.6125 L
  58.53782473267536,50.61830525127256
  58.54674981986106,50.62849021224305
  58.55,50.6448694095222
  58.55,51.905130590477796
  58.544194748727435,51.925324732675364
  58.53400978775694,51.93424981986105
  58.51763059047778,51.9375
  58.332369409522215,51.9375
  58.31217526732463,51.93169474872742
  58.30325018013893,51.921509787756946
  58.3,51.905130590477796
  58.3,50.6448694095222
  58.30580525127256,50.62467526732463
  58.31599021224305,50.61575018013893
  58.3323694095222,50.6125
  Z" />
<path fill="none" stroke="#0000FF" stroke-width="0.06614583333333333"
  d="M 59.1676305904778,50.6125 L
  59.18782473267537,50.61830525127256
  59.196749819861054,50.62849021224304
  59.19999999999999,50.6448694095222
  59.19999999999999,51.905130590477796
  59.19419474872741,51.92532473267538
  59.18400978775695,51.93424981986105
  59.167630590477785,51.9375
  58.98236940952221,51.9375
  58.96217526732461,51.93169474872742
  58.95325018013894,51.92150978775696
  58.95,51.905130590477796
  58.95,50.6448694095222
  58.955805251272565,50.62467526732462
  58.96599021224304,50.61575018013893
  58.98236940952219,50.6125
  Z" />
<path fill="none" stroke="#0000FF" stroke-width="0.06614583333333333"
  d="M 59.817630590477805,50.6125 L
  59.83782473267537,50.61830525127256
  59.84674981986106,50.62849021224305
  59.849999999999994,50.6448694095222
  59.849999999999994,51.905130590477796
  59.84419474872742,51.925324732675364
  59.83400978775694,51.93424981986105
  59.81763059047779,51.9375
  59.63236940952221,51.9375
  59.61217526732463,51.93169474872742
  59.60325018013894,51.921509787756946
  59.599999999999994,51.90513059047778
  59.599999999999994,50.644869409522215
  59.60580525127257,50.62467526732463
  59.61599021224305,50.61575018013893
  59.6323694095222,50.6125
  Z" />
<path fill="none" stroke="#0000FF" stroke-width="0.06614583333333333"
  d="M 60.467630590477796,50.6125 L
  60.487824732675364,50.61830525127256
  60.49674981986105,50.62849021224305
  60.5,50.644869409522215
  60.5,51.90513059047778
  60.49419474872742,51.925324732675364
  60.484009787756946,51.93424981986105
  60.46763059047778,51.9375
  60.282369409522204,51.9375
  60.26217526732462,51.93169474872742
  60.253250180138934,51.921509787756946
  60.25,51.905130590477796
  60.25,50.6448694095222
  60.25580525127258,50.62467526732463
  60.265990212243054,50.61575018013893
  60.28236940952219,50.6125
  Z" />
<path fill="none" stroke="#0000FF" stroke-width="0.06614583333333333"
  d="M 61.1176305904778,50.6125 L
  61.13782473267537,50.61830525127256
  61.14674981986106,50.62849021224304
  61.14999999999999,50.6448694095222
  61.14999999999999,51.905130590477796
  61.14419474872743,51.92532473267538
  61.13400978775695,51.93424981986105
  61.11763059047779,51.9375
  60.93236940952221,51.9375
  60.91217526732463,51.93169474872742
  60.90325018013894,51.92150978775696
  60.900000000000006,51.905130590477796
  60.900000000000006,50.6448694095222
  60.90580525127258,50.62467526732462
  60.915990212243045,50.61575018013893
  60.932369409522195,50.6125
  Z" />
<path fill="none" stroke="#0000FF" stroke-width="0.06614583333333333"
  d="M 61.76763059047779,50.6125 L
  61.78782473267536,50.61830525127256
  61.79674981986106,50.62849021224305
  61.8,50.6448694095222
  61.8,51.905130590477796
  61.794194748727435,51.925324732675364
  61.78400978775694,51.93424981986105
  61.76763059047778,51.9375
  61.582369409522215,51.9375
  61.56217526732463,51.93169474872742
  61.55325018013893,51.921509787756946
  61.55,51.905130590477796
  61.55,50.6448694095222
  61.55580525127256,50.62467526732463
  61.56599021224305,50.61575018013893
  61.5823694095222,50.6125
  Z" />
<path fill="none" stroke="#0000FF" stroke-width="0.06614583333333333"
  d="M 62.4176305904778,50.6125 L
  62.43782473267537,50.61830525127256
  62.446749819861054,50.62849021224304
  62.44999999999999,50.6448694095222
  62.44999999999999,51.905130590477796
  62.44419474872741,51.92532473267538
  62.43400978775695,51.93424981986105
  62.417630590477785,51.9375
  62.23236940952221,51.9375
  62.21217526732461,51.93169474872742
  62.20325018013894,51.92150978775696
  62.2,51.905130590477796
  62.2,50.6448694095222
  62.205805251272565,50.62467526732462
  62.21599021224304,50.61575018013893
  62.23236940952219,50.6125
  Z" />
<path fill="none" stroke="#0000FF" stroke-width="0.06614583333333333"
  d="M 63.067630590477805,50.6125 L
  63.08782473267537,50.61830525127256
  63.096749819861046,50.62849021224305
  63.10000000000001,50.6448694095222
  63.10000000000001,51.905130590477796
  63.09419474872742,51.925324732675364
  63.084009787756955,51.93424981986105
  63.067630590477805,51.9375
  62.882369409522184,51.9375
  62.862175267324616,51.93169474872742
  62.85325018013894,51.921509787756946
  62.84999999999998,51.90513059047778
  62.84999999999998,50.644869409522215
  62.85580525127257,50.62467526732463
  62.865990212243034,50.61575018013893
  62.882369409522184,50.6125
  Z" />
<path fill="none" stroke="#0000FF" stroke-width="0.06614583333333333"
  d="M 36.425,48.75237570594251 L
  36.432059179094935,48.71683211997329
  36.447978151737146,48.69297815173712
  36.471832119973286,48.677059179094925
  36.50737570594252,48.67
  37.94262429405748,48.67
  37.97816788002672,48.677059179094925
  38.00202184826286,48.69297815173712
  38.01794082090507,48.71683211997329
  38.02499999999999,48.75237570594251
  38.02499999999999,49.03762429405748
  38.01794082090507,49.073167880026716
  38.00202184826287,49.09702184826287
  37.97816788002672,49.11294082090507
  37.94262429405748,49.11999999999999
  36.50737570594252,49.11999999999999
  36.471832119973286,49.11294082090507
  36.44797815173713,49.09702184826287
  36.432059179094935,49.0731678800267
  36.425,49.03762429405748
  Z" />
<path fill="none" stroke="#0000FF" stroke-width="0.06614583333333333"
  d="M 36.425,50.02237570594252 L
  36.432059179094935,49.9868321199733
  36.44797815173713,49.96297815173713
  36.4718321199733,49.947059179094936
  36.50737570594252,49.94
  37.94262429405748,49.94
  37.9781678800267,49.947059179094936
  38.00202184826287,49.96297815173713
  38.01794082090507,49.986832119973286
  38.02499999999999,50.02237570594252
  38.02499999999999,50.307624294057476
  38.01794082090507,50.34316788002671
  38.00202184826287,50.367021848262866
  37.9781678800267,50.38294082090506
  37.94262429405748,50.39
  36.50737570594252,50.39
  36.4718321199733,50.38294082090506
  36.44797815173713,50.367021848262866
  36.432059179094935,50.3431678800267
  36.425,50.307624294057476
  Z" />
<path fill="none" stroke="#0000FF" stroke-width="0.06614583333333333"
  d="M 36.425,51.29237570594252 L
  36.432059179094935,51.256832119973296
  36.44797815173713,51.23297815173713
  36.4718321199733,51.21705917909493
  36.50737570594252,51.209999999999994
  37.94262429405748,51.209999999999994
  37.9781678800267,51.21705917909493
  38.00202184826287,51.23297815173713
  38.01794082090507,51.25683211997328
  38.02499999999999,51.29237570594252
  38.02499999999999,51.57762429405747
  38.01794082090507,51.61316788002671
  38.00202184826287,51.63702184826286
  37.9781678800267,51.65294082090506
  37.94262429405748,51.66
  36.50737570594252,51.66
  36.4718321199733,51.65294082090506
  36.44797815173713,51.63702184826286
  36.432059179094935,51.613167880026694
  36.425,51.57762429405747
  Z" />
<path fill="none" stroke="#0000FF" stroke-width="0.06614583333333333"
  d="M 36.425,52.562375705942515 L
  36.432059179094935,52.52683211997329
  36.44797815173713,52.502978151737125
  36.471832119973286,52.48705917909493
  36.50737570594252,52.480000000000004
  37.94262429405748,52.480000000000004
  37.97816788002672,52.48705917909493
  38.00202184826287,52.502978151737125
  38.01794082090507,52.52683211997328
  38.02499999999999,52.562375705942515
  38.02499999999999,52.84762429405748
  38.01794082090507,52.883167880026704
  38.00202184826286,52.90702184826287
  37.97816788002672,52.92294082090507
  37.94262429405748,52.92999999999999
  36.50737570594252,52.92999999999999
  36.471832119973286,52.92294082090507
  36.447978151737146,52.90702184826287
  36.432059179094935,52.883167880026704
  36.425,52.84762429405748
  Z" />
<path fill="none" stroke="#0000FF" stroke-width="0.06614583333333333"
  d="M 41.575,52.562375705942515 L
  41.58205917909493,52.52683211997328
  41.597978151737124,52.502978151737125
  41.62183211997328,52.48705917909493
  41.65737570594251,52.480000000000004
  43.09262429405747,52.480000000000004
  43.12816788002671,52.48705917909493
  43.15202184826286,52.502978151737125
  43.16794082090506,52.52683211997329
  43.175,52.562375705942515
  43.175,52.84762429405748
  43.16794082090506,52.883167880026704
  43.15202184826285,52.90702184826287
  43.12816788002671,52.92294082090507
  43.09262429405747,52.92999999999999
  41.65737570594251,52.92999999999999
  41.62183211997328,52.92294082090507
  41.59797815173714,52.90702184826287
  41.58205917909493,52.883167880026704
  41.575,52.84762429405748
  Z" />
<path fill="none" stroke="#0000FF" stroke-width="0.06614583333333333"
  d="M 41.575,51.29237570594252 L
  41.58205917909493,51.25683211997328
  41.597978151737124,51.23297815173713
  41.62183211997329,51.21705917909493
  41.65737570594251,51.209999999999994
  43.09262429405747,51.209999999999994
  43.128167880026695,51.21705917909493
  43.15202184826286,51.23297815173713
  43.16794082090506,51.256832119973296
  43.175,51.29237570594252
  43.175,51.57762429405747
  43.16794082090506,51.613167880026694
  43.15202184826286,51.63702184826286
  43.128167880026695,51.65294082090506
  43.09262429405747,51.66
  41.65737570594251,51.66
  41.62183211997329,51.65294082090506
  41.597978151737124,51.63702184826286
  41.58205917909493,51.61316788002671
  41.575,51.57762429405747
  Z" />
<path fill="none" stroke="#0000FF" stroke-width="0.06614583333333333"
  d="M 41.575,50.02237570594252 L
  41.58205917909493,49.986832119973286
  41.597978151737124,49.96297815173713
  41.62183211997329,49.947059179094936
  41.65737570594251,49.94
  43.09262429405747,49.94
  43.128167880026695,49.947059179094936
  43.15202184826286,49.96297815173713
  43.16794082090506,49.9868321199733
  43.175,50.02237570594252
  43.175,50.307624294057476
  43.16794082090506,50.3431678800267
  43.15202184826286,50.367021848262866
  43.128167880026695,50.38294082090506
  43.09262429405747,50.39
  41.65737570594251,50.39
  41.62183211997329,50.38294082090506
  41.597978151737124,50.367021848262866
  41.58205917909493,50.34316788002671
  41.575,50.307624294057476
  Z" />
<path fill="none" stroke="#0000FF" stroke-width="0.06614583333333333"
  d="M 41.575,48.75237570594251 L
  41.58205917909493,48.71683211997329
  41.59797815173714,48.69297815173712
  41.62183211997328,48.677059179094925
  41.65737570594251,48.67
  43.09262429405747,48.67
  43.12816788002671,48.677059179094925
  43.15202184826285,48.69297815173712
  43.16794082090506,48.71683211997329
  43.175,48.75237570594251
  43.175,49.03762429405748
  43.16794082090506,49.0731678800267
  43.15202184826286,49.09702184826287
  43.12816788002671,49.11294082090507
  43.09262429405747,49.11999999999999
  41.65737570594251,49.11999999999999
  41.62183211997328,49.11294082090507
  41.597978151737124,49.09702184826287
  41.58205917909493,49.073167880026716
  41.575,49.03762429405748
  Z" />
<path fill="none" stroke="#0000FF" stroke-width="0.06614583333333333"
  d="M 48.375,46.91989441435409 L
  48.38874069812748,46.85088726187968
  48.42366714196589,46.79866714196589
  48.47588726187968,46.76374069812748
  48.54489441435409,46.75
  49.0301055856459,46.75
  49.099112738120326,46.76374069812748
  49.151332858034095,46.79866714196589
  49.186259301872525,46.85088726187968
  49.19999999999999,46.91989441435409
  49.19999999999999,47.38010558564591
  49.186259301872525,47.44911273812032
  49.151332858034095,47.50133285803409
  49.099112738120326,47.53625930187252
  49.0301055856459,47.55
  48.54489441435409,47.55
  48.47588726187968,47.53625930187252
  48.42366714196589,47.50133285803409
  48.38874069812748,47.44911273812032
  48.375,47.38010558564591
  Z" />
<path fill="none" stroke="#0000FF" stroke-width="0.06614583333333333"
  d="M 50.2,46.91989441435409 L
  50.21374069812748,46.85088726187968
  50.248667141965896,46.79866714196589
  50.300887261879666,46.76374069812748
  50.36989441435409,46.75
  50.8551055856459,46.75
  50.92411273812033,46.76374069812748
  50.9763328580341,46.79866714196589
  51.011259301872514,46.85088726187968
  51.02499999999999,46.91989441435409
  51.02499999999999,47.38010558564591
  51.011259301872514,47.44911273812032
  50.9763328580341,47.50133285803409
  50.92411273812033,47.53625930187252
  50.8551055856459,47.55
  50.36989441435409,47.55
  50.300887261879666,47.53625930187252
  50.248667141965896,47.50133285803409
  50.21374069812748,47.44911273812032
  50.2,47.38010558564591
  Z" />
<path fill="none" stroke="#0000FF" stroke-width="0.06614583333333333"
  d="M 42.2301055856459,44.525000000000006 L
  42.29911273812033,44.53874069812747
  42.3513328580341,44.5736671419659
  42.386259301872514,44.62588726187967
  42.39999999999999,44.694894414354096
  42.39999999999999,45.180105585645904
  42.386259301872514,45.24911273812032
  42.3513328580341,45.3013328580341
  42.29911273812033,45.336259301872516
  42.2301055856459,45.349999999999994
  41.7698944143541,45.349999999999994
  41.70088726187967,45.336259301872516
  41.6486671419659,45.3013328580341
  41.61374069812747,45.24911273812032
  41.599999999999994,45.180105585645904
  41.599999999999994,44.694894414354096
  41.61374069812747,44.62588726187967
  41.6486671419659,44.5736671419659
  41.70088726187967,44.53874069812747
  41.7698944143541,44.525000000000006
  Z" />
<path fill="none" stroke="#0000FF" stroke-width="0.06614583333333333"
  d="M 42.2301055856459,46.349999999999994 L
  42.29911273812033,46.36374069812747
  42.3513328580341,46.3986671419659
  42.386259301872514,46.45088726187967
  42.39999999999999,46.5198944143541
  42.39999999999999,47.00510558564591
  42.386259301872514,47.07411273812032
  42.3513328580341,47.12633285803409
  42.29911273812033,47.16125930187252
  42.2301055856459,47.175
  41.7698944143541,47.175
  41.70088726187967,47.16125930187252
  41.6486671419659,47.12633285803409
  41.61374069812746,47.07411273812032
  41.599999999999994,47.00510558564591
  41.599999999999994,46.5198944143541
  41.61374069812747,46.45088726187967
  41.6486671419659,46.3986671419659
  41.70088726187967,46.36374069812747
  41.7698944143541,46.349999999999994
  Z" />
<path fill="none" stroke="#0000FF" stroke-width="0.06614583333333333"
  d="M 64.5698944143541,52.125 L
  64.5008872618797,52.111259301872536
  64.44866714196591,52.07633285803409
  64.41374069812748,52.02411273812032
  64.39999999999999,51.955105585645896
  64.39999999999999,51.3948944143541
  64.41374069812748,51.32588726187967
  64.44866714196591,51.2736671419659
  64.5008872618797,51.23874069812746
  64.5698944143541,51.224999999999994
  65.0301055856459,51.224999999999994
  65.0991127381203,51.23874069812746
  65.15133285803408,51.2736671419659
  65.18625930187251,51.32588726187967
  65.2,51.3948944143541
  65.2,51.955105585645896
  65.18625930187251,52.02411273812032
  65.15133285803408,52.07633285803409
  65.0991127381203,52.111259301872536
  65.0301055856459,52.125
  Z" />
<path fill="none" stroke="#0000FF" stroke-width="0.06614583333333333"
  d="M 64.5698944143541,50.375 L
  64.5008872618797,50.361259301872536
  64.44866714196591,50.32633285803409
  64.41374069812748,50.27411273812032
  64.39999999999999,50.205105585645896
  64.39999999999999,49.6448944143541
  64.41374069812748,49.57588726187967
  64.44866714196591,49.5236671419659
  64.5008872618797,49.48874069812746
  64.5698944143541,49.474999999999994
  65.0301055856459,49.474999999999994
  65.0991127381203,49.48874069812746
  65.15133285803408,49.5236671419659
  65.18625930187251,49.57588726187967
  65.2,49.6448944143541
  65.2,50.205105585645896
  65.18625930187251,50.27411273812032
  65.15133285803408,50.32633285803409
  65.0991127381203,50.361259301872536
  65.0301055856459,50.375
  Z" />
<path fill="none" stroke="#0000FF" stroke-width="0.06614583333333333"
  d="M 59.33749999999999,43.89262429405747 L
  59.33044082090507,43.928167880026706
  59.31452184826286,43.95202184826287
  59.29066788002672,43.96794082090507
  59.25512429405748,43.974999999999994
  58.24487570594252,43.974999999999994
  58.20933211997328,43.96794082090507
  58.18547815173714,43.95202184826287
  58.16955917909493,43.928167880026706
  58.162499999999994,43.89262429405747
  58.162499999999994,43.607375705942516
  58.16955917909493,43.571832119973294
  58.18547815173713,43.54797815173713
  58.20933211997328,43.53205917909493
  58.24487570594252,43.525000000000006
  59.25512429405748,43.525000000000006
  59.29066788002672,43.53205917909493
  59.31452184826287,43.54797815173713
  59.33044082090507,43.57183211997328
  59.33749999999999,43.607375705942516
  Z" />
<path fill="none" stroke="#0000FF" stroke-width="0.06614583333333333"
  d="M 59.33749999999999,41.99262429405748 L
  59.33044082090507,42.028167880026714
  59.31452184826287,42.05202184826287
  59.29066788002672,42.067940820905065
  59.25512429405748,42.07499999999999
  58.24487570594252,42.07499999999999
  58.20933211997328,42.067940820905065
  58.18547815173713,42.05202184826287
  58.16955917909493,42.0281678800267
  58.162499999999994,41.99262429405748
  58.162499999999994,41.707375705942525
  58.16955917909493,41.67183211997329
  58.18547815173714,41.64797815173712
  58.20933211997328,41.632059179094924
  58.24487570594252,41.625
  59.25512429405748,41.625
  59.29066788002672,41.632059179094924
  59.31452184826286,41.64797815173712
  59.33044082090507,41.67183211997329
  59.33749999999999,41.707375705942525
  Z" />
<path fill="none" stroke="#0000FF" stroke-width="0.06614583333333333"
  d="M 57.0625,42.94262429405748 L
  57.05544082090506,42.9781678800267
  57.039521848262865,43.00202184826287
  57.01566788002671,43.01794082090507
  56.980124294057475,43.02499999999999
  55.96987570594251,43.02499999999999
  55.93433211997328,43.01794082090507
  55.910478151737124,43.00202184826287
  55.89455917909493,42.97816788002672
  55.8875,42.94262429405748
  55.8875,42.65737570594251
  55.89455917909493,42.62183211997328
  55.910478151737124,42.597978151737124
  55.93433211997328,42.58205917909493
  55.96987570594251,42.575
  56.980124294057475,42.575
  57.01566788002671,42.58205917909493
  57.039521848262865,42.597978151737124
  57.05544082090506,42.62183211997329
  57.0625,42.65737570594251
  Z" />
<path fill="none" stroke="#0000FF" stroke-width="0.06614583333333333"
  d="M 48.3875,43.55737570594252 L
  48.39455917909493,43.52183211997328
  48.410478151737124,43.49797815173713
  48.43433211997329,43.48205917909493
  48.46987570594251,43.474999999999994
  49.63012429405748,43.474999999999994
  49.6656678800267,43.48205917909493
  49.68952184826287,43.49797815173713
  49.70544082090507,43.52183211997328
  49.71249999999999,43.55737570594252
  49.71249999999999,43.84262429405747
  49.70544082090507,43.87816788002671
  49.68952184826287,43.90202184826286
  49.6656678800267,43.91794082090506
  49.63012429405748,43.925
  48.46987570594251,43.925
  48.43433211997329,43.91794082090506
  48.410478151737124,43.90202184826286
  48.39455917909493,43.87816788002671
  48.3875,43.84262429405747
  Z" />
<path fill="none" stroke="#0000FF" stroke-width="0.06614583333333333"
  d="M 48.3875,45.457375705942525 L
  48.39455917909493,45.42183211997329
  48.41047815173714,45.39797815173712
  48.43433211997328,45.382059179094924
  48.46987570594251,45.375
  49.63012429405748,45.375
  49.66566788002672,45.382059179094924
  49.68952184826286,45.39797815173712
  49.70544082090507,45.42183211997329
  49.71249999999999,45.457375705942525
  49.71249999999999,45.74262429405748
  49.70544082090507,45.778167880026714
  49.68952184826287,45.80202184826287
  49.66566788002672,45.817940820905065
  49.63012429405748,45.82499999999999
  48.46987570594251,45.82499999999999
  48.43433211997328,45.817940820905065
  48.410478151737124,45.80202184826287
  48.39455917909493,45.778167880026714
  48.3875,45.74262429405748
  Z" />
<path fill="none" stroke="#0000FF" stroke-width="0.06614583333333333"
  d="M 50.2625,44.50737570594252 L
  50.26955917909493,44.471832119973286
  50.285478151737124,44.44797815173713
  50.30933211997329,44.432059179094935
  50.34487570594251,44.425
  51.50512429405748,44.425
  51.5406678800267,44.432059179094935
  51.56452184826287,44.44797815173713
  51.58044082090507,44.471832119973286
  51.58749999999999,44.50737570594252
  51.58749999999999,44.792624294057475
  51.58044082090507,44.82816788002671
  51.56452184826287,44.852021848262865
  51.5406678800267,44.86794082090506
  51.50512429405748,44.875
  50.34487570594251,44.875
  50.30933211997329,44.86794082090506
  50.285478151737124,44.852021848262865
  50.26955917909493,44.82816788002671
  50.2625,44.792624294057475
  Z" />
<path fill="none" stroke="#0000FF" stroke-width="0.06614583333333333"
  d="M 40.680105585645904,44.525000000000006 L
  40.74911273812032,44.53874069812747
  40.8013328580341,44.5736671419659
  40.836259301872516,44.62588726187967
  40.849999999999994,44.694894414354096
  40.849999999999994,45.180105585645904
  40.836259301872516,45.24911273812032
  40.8013328580341,45.3013328580341
  40.74911273812032,45.336259301872516
  40.680105585645904,45.349999999999994
  40.21989441435409,45.349999999999994
  40.150887261879674,45.336259301872516
  40.098667141965905,45.3013328580341
  40.063740698127475,45.24911273812032
  40.05,45.180105585645904
  40.05,44.694894414354096
  40.063740698127475,44.62588726187967
  40.098667141965905,44.5736671419659
  40.150887261879674,44.53874069812747
  40.21989441435409,44.525000000000006
  Z" />
<path fill="none" stroke="#0000FF" stroke-width="0.06614583333333333"
  d="M 40.680105585645904,46.349999999999994 L
  40.74911273812032,46.36374069812747
  40.8013328580341,46.3986671419659
  40.836259301872516,46.45088726187967
  40.849999999999994,46.5198944143541
  40.849999999999994,47.00510558564591
  40.836259301872516,47.07411273812032
  40.8013328580341,47.12633285803409
  40.74911273812032,47.16125930187252
  40.680105585645904,47.175
  40.21989441435409,47.175
  40.150887261879674,47.16125930187253
  40.098667141965905,47.12633285803409
  40.06374069812746,47.07411273812032
  40.05,47.00510558564591
  40.05,46.5198944143541
  40.063740698127475,46.45088726187967
  40.098667141965905,46.3986671419659
  40.150887261879674,46.36374069812746
  40.21989441435409,46.349999999999994
  Z" />
<path fill="none" stroke="#0000FF" stroke-width="0.06614583333333333"
  d="M 36.6125,46.569894414354096 L
  36.626240698127475,46.50088726187967
  36.661167141965905,46.4486671419659
  36.713387261879674,46.41374069812747
  36.78239441435409,46.400000000000006
  37.367605585645904,46.400000000000006
  37.43661273812032,46.41374069812747
  37.4888328580341,46.4486671419659
  37.523759301872516,46.50088726187967
  37.537499999999994,46.569894414354096
  37.537499999999994,47.0301055856459
  37.523759301872516,47.099112738120326
  37.4888328580341,47.151332858034095
  37.43661273812032,47.186259301872525
  37.367605585645904,47.19999999999999
  36.78239441435409,47.19999999999999
  36.713387261879674,47.186259301872525
  36.661167141965905,47.151332858034095
  36.626240698127475,47.099112738120326
  36.6125,47.0301055856459
  Z" />
<path fill="none" stroke="#0000FF" stroke-width="0.06614583333333333"
  d="M 38.337500000000006,46.569894414354096 L
  38.35124069812747,46.50088726187967
  38.3861671419659,46.4486671419659
  38.43838726187967,46.41374069812747
  38.507394414354096,46.400000000000006
  39.0926055856459,46.400000000000006
  39.161612738120326,46.41374069812747
  39.213832858034095,46.4486671419659
  39.248759301872525,46.50088726187967
  39.26249999999999,46.569894414354096
  39.26249999999999,47.0301055856459
  39.248759301872525,47.099112738120326
  39.213832858034095,47.151332858034095
  39.161612738120326,47.186259301872525
  39.0926055856459,47.19999999999999
  38.507394414354096,47.19999999999999
  38.43838726187967,47.186259301872525
  38.3861671419659,47.151332858034095
  38.35124069812747,47.099112738120326
  38.337500000000006,47.0301055856459
  Z" />
<path fill="none" stroke="#000000" stroke-width="0.06614583333333333"
  d="M 34.8,55.8 L
  34.8,45.8
  39.8,40.8
  66.8,40.8
  66.8,60.8
  39.8,60.8
  Z" />
</svg>